<?xml version="1.0" encoding="utf-8"?>
<!-- Generator: Adobe Illustrator 16.0.0, SVG Export Plug-In . SVG Version: 6.00 Build 0)  -->
<!DOCTYPE svg PUBLIC "-//W3C//DTD SVG 1.1//EN" "http://www.w3.org/Graphics/SVG/1.1/DTD/svg11.dtd">
<svg version="1.1" id="Layer_1" xmlns="http://www.w3.org/2000/svg" xmlns:xlink="http://www.w3.org/1999/xlink" x="0px" y="0px"
	 width="304px" height="304px" viewBox="0 0 304 304" enable-background="new 0 0 304 304" xml:space="preserve">
<polygon fill="#21B28A" points="303.355,202.232 303.355,207.912 302.592,207.912 302.592,203.006 300.662,207.912 299.994,207.912 
	298.064,203.006 298.16,207.912 297.298,207.912 297.298,202.232 298.644,202.232 300.369,206.665 302.108,202.232 "/>
<polygon fill="#21B28A" points="296.718,202.232 296.718,203.006 295.659,203.006 295.562,207.912 294.692,207.912 294.692,203.006 
	293.64,203.006 293.64,202.232 "/>
<path fill="#21B28A" d="M293.598,236.913c0,3.706-0.754,6.896-2.238,9.571c-1.49,2.667-3.387,4.005-5.674,4.005
	c-0.723,0-1.407-0.143-2.049-0.428c-0.639-0.281-1.438-0.811-2.412-1.598c-0.536-0.436-0.987-0.654-1.326-0.654
	c-0.3,0-0.609,0.219-0.933,0.661c-0.323,0.441-0.591,1.116-0.794,2.019h-0.604v-16.752h0.604c0.494,4.714,1.458,8.304,2.87,10.775
	c1.412,2.474,2.934,3.716,4.573,3.716c1.26,0,2.27-0.668,3.019-1.996c0.752-1.33,1.126-2.885,1.126-4.656
	c0-1.047-0.146-2.058-0.429-3.045c-0.297-0.978-0.732-1.909-1.326-2.799c-0.584-0.881-1.625-2.03-3.119-3.45
	c-2.091-1.983-3.589-3.682-4.5-5.073c-0.903-1.399-1.598-2.957-2.088-4.681c-0.484-1.723-0.729-3.618-0.729-5.69
	c0-3.531,0.668-6.541,2.011-9.027c1.335-2.484,3.019-3.728,5.058-3.728c0.739,0,1.462,0.172,2.159,0.514
	c0.528,0.262,1.167,0.745,1.931,1.445c0.756,0.705,1.293,1.059,1.598,1.059c0.289,0,0.517-0.176,0.689-0.524
	c0.163-0.347,0.324-1.177,0.475-2.493h0.51l0.171,14.827h-0.681c-0.333-3.728-1.138-6.724-2.412-9
	c-1.284-2.268-2.661-3.406-4.148-3.406c-1.152,0-2.06,0.602-2.729,1.793c-0.675,1.187-1.007,2.559-1.007,4.107
	c0,0.979,0.116,1.856,0.352,2.62c0.329,1.026,0.854,2.04,1.577,3.046c0.531,0.717,1.765,1.991,3.689,3.832
	c2.694,2.55,4.497,4.962,5.423,7.229C293.144,231.399,293.598,233.999,293.598,236.913"/>
<path fill="#21B28A" d="M288.075,164.191c1.806,1.949,1.501,5.17-0.665,7.187c-2.18,2.014-5.411,2.067-7.225,0.119
	c-1.807-1.947-1.51-5.168,0.671-7.189C283.033,162.289,286.264,162.242,288.075,164.191 M287.063,167.541
	c0.077-0.309,0.051-0.601-0.068-0.876c-0.124-0.274-0.391-0.633-0.807-1.089l-1.599-1.719l-0.107,0.094
	c0.155,0.168,0.255,0.31,0.274,0.406c0.02,0.096,0.011,0.185-0.02,0.259c-0.045,0.087-0.177,0.228-0.409,0.448l-2.803,2.604
	c-0.228,0.212-0.388,0.333-0.471,0.36c-0.084,0.03-0.171,0.037-0.269,0.008c-0.09-0.027-0.222-0.131-0.38-0.305l-0.11,0.097
	l1.778,1.917l0.104-0.097c-0.158-0.173-0.247-0.31-0.267-0.405c-0.022-0.1-0.015-0.181,0.02-0.263
	c0.035-0.084,0.171-0.228,0.406-0.447l1.207-1.115l0.227,0.239l-0.846,3.006l1.081,1.17l0.116-0.108
	c-0.088-0.106-0.13-0.228-0.139-0.366c0-0.087,0.042-0.282,0.116-0.571l0.638-2.232c0.266,0.164,0.529,0.245,0.778,0.255
	c0.386,0,0.734-0.148,1.054-0.442C286.83,168.135,286.994,167.86,287.063,167.541"/>
<polygon fill="#21B28A" points="287.259,197.238 12.167,197.238 31.905,175.604 33.641,177.617 18.521,194.558 66.454,194.558 
	280.424,194.558 226.195,141.214 226.188,141.186 226.127,141.152 166.081,82.083 141.579,57.985 66.668,138.947 64.743,137.707 
	141.098,54.539 "/>
<path fill="#21B28A" d="M285.91,165.762c0.277,0.29,0.396,0.579,0.361,0.856c-0.035,0.274-0.213,0.566-0.547,0.866
	c-0.22,0.208-0.438,0.339-0.648,0.4c-0.204,0.058-0.391,0.05-0.562-0.024c-0.165-0.077-0.371-0.245-0.607-0.5l-0.145-0.15
	l1.884-1.745L285.91,165.762z"/>
<path fill="#21B28A" d="M279.469,160.201l-4.261,4.309l-0.355-0.354c0.701-0.937,1.149-1.79,1.349-2.565
	c0.194-0.77,0.165-1.563-0.083-2.374c-0.245-0.816-0.655-1.505-1.227-2.062c-0.639-0.641-1.37-0.965-2.177-0.994
	c-0.804-0.021-1.455,0.215-1.949,0.718c-0.38,0.383-0.594,0.86-0.636,1.442c-0.083,0.849,0.223,2.359,0.903,4.56
	c0.552,1.793,0.878,3.067,0.979,3.834c0.097,0.765,0.041,1.484-0.178,2.174c-0.216,0.69-0.574,1.284-1.068,1.782
	c-0.938,0.947-2.118,1.402-3.538,1.363c-1.417-0.04-2.714-0.642-3.877-1.792c-0.365-0.358-0.682-0.729-0.946-1.104
	c-0.167-0.22-0.454-0.722-0.861-1.516c-0.416-0.794-0.703-1.267-0.861-1.426c-0.155-0.153-0.324-0.229-0.502-0.229
	c-0.188,0.01-0.442,0.134-0.771,0.384l-0.352-0.354l4.258-4.31l0.352,0.352c-0.732,1.064-1.187,1.952-1.357,2.677
	c-0.165,0.717-0.123,1.502,0.142,2.351c0.273,0.849,0.732,1.604,1.4,2.266c0.772,0.76,1.586,1.158,2.444,1.192
	c0.845,0.034,1.549-0.228,2.098-0.779c0.305-0.31,0.532-0.708,0.668-1.19c0.146-0.484,0.176-1.043,0.084-1.662
	c-0.062-0.425-0.331-1.467-0.813-3.134c-0.481-1.67-0.778-2.902-0.881-3.712c-0.104-0.811-0.055-1.548,0.139-2.216
	c0.19-0.663,0.547-1.265,1.052-1.776c0.897-0.905,2.013-1.338,3.349-1.306c1.339,0.029,2.544,0.578,3.619,1.635
	c0.671,0.658,1.213,1.524,1.646,2.591c0.195,0.497,0.369,0.811,0.512,0.954c0.159,0.153,0.34,0.237,0.532,0.245
	c0.198,0.005,0.468-0.104,0.813-0.324L279.469,160.201z"/>
<path fill="#21B28A" d="M274.568,205.087v11.978h-0.6c-0.366-2.771-0.764-4.762-1.199-5.976c-0.441-1.212-1.039-2.176-1.811-2.902
	c-0.429-0.391-1.174-0.591-2.247-0.591h-1.678v34.266c0,2.293,0.064,3.73,0.19,4.299c0.129,0.574,0.377,1.074,0.755,1.504
	c0.374,0.436,0.884,0.648,1.528,0.648h0.752v1.174h-11.926v-1.174h0.758c0.66,0,1.189-0.235,1.598-0.697
	c0.286-0.31,0.517-0.834,0.687-1.586c0.125-0.529,0.187-1.917,0.187-4.168v-34.266h-1.677c-1.559,0-2.685,0.643-3.385,1.901
	c-0.987,1.77-1.612,4.293-1.877,7.567h-0.6v-11.978H274.568z"/>
<path fill="#21B28A" d="M268.947,150.34l-2.61,2.879l-0.388-0.379c0.521-0.785,0.826-1.377,0.907-1.779
	c0.091-0.398,0.039-0.813-0.136-1.246c-0.154-0.33-0.539-0.806-1.161-1.413l-3.409-3.371l-4.91,4.962l2.709,2.673
	c0.713,0.705,1.291,1.066,1.744,1.089c0.599,0.029,1.272-0.29,2.007-0.964l0.358,0.352l-4.314,4.367l-0.355-0.349
	c0.517-0.698,0.815-1.173,0.899-1.438c0.104-0.321,0.089-0.675-0.032-1.044c-0.133-0.373-0.457-0.813-0.982-1.328l-2.705-2.677
	l-4.073,4.127c-0.552,0.554-0.855,0.917-0.932,1.083c-0.067,0.173-0.074,0.351-0.021,0.544c0.058,0.193,0.255,0.46,0.602,0.802
	l2.119,2.098c0.711,0.705,1.277,1.16,1.695,1.38c0.413,0.221,0.91,0.332,1.497,0.34c0.752,0,1.71-0.186,2.867-0.555l0.386,0.381
	l-4.193,2.081l-9.712-9.592l0.351-0.36l0.448,0.45c0.302,0.297,0.653,0.502,1.061,0.626c0.297,0.099,0.587,0.081,0.849-0.04
	c0.268-0.134,0.7-0.497,1.31-1.113l8.048-8.145c0.801-0.81,1.207-1.39,1.233-1.735c0.021-0.476-0.228-0.973-0.752-1.488
	l-0.448-0.441l0.354-0.359L268.947,150.34z"/>
<polygon fill="#21B28A" points="255.848,182.688 256.424,184.034 222.055,184.9 221.763,184.611 228.411,180.181 229.848,179.891 
	232.737,176.423 233.027,175.755 232.737,171.999 231.298,167.762 227.25,163.041 227.25,162.465 231.008,162.465 231.586,162.081 
	233.027,160.829 234.474,160.829 "/>
<path fill="#21B28A" d="M253.772,135.921c0.445,0.826,0.63,1.716,0.555,2.681c-0.074,0.958-0.468,1.806-1.187,2.53
	c-0.762,0.771-1.687,1.19-2.755,1.258c-1.067,0.07-2.255-0.302-3.558-1.115l-0.942,6.189c-0.229,1.419-0.262,2.474-0.104,3.163
	c0.165,0.695,0.552,1.419,1.165,2.171l-0.352,0.356l-3.377-3.327l1.535-10.116c-0.32-0.289-0.578-0.538-0.771-0.724
	c-0.081-0.082-0.162-0.164-0.246-0.253c-0.09-0.098-0.181-0.193-0.271-0.297l0.587-0.593c0.119,0.109,0.214,0.214,0.294,0.303
	c0.087,0.09,0.152,0.158,0.207,0.213c1.193,1.172,2.339,1.798,3.462,1.875c1.115,0.076,2.067-0.291,2.867-1.096
	c0.771-0.786,1.157-1.668,1.157-2.639c0-0.971-0.4-1.856-1.199-2.646c-0.139-0.131-0.294-0.268-0.481-0.413l0.736-0.744l0.007,0.007
	C252.438,134.025,253.327,135.101,253.772,135.921"/>
<path fill="#21B28A" d="M251.996,205.087v1.172c-0.968,0.241-1.626,0.558-1.956,0.936c-0.338,0.389-0.59,1.015-0.777,1.883
	c-0.187,0.871-0.283,2.357-0.283,4.465v36.947h-0.573l-15.407-36.838v28.125c0,2.559,0.3,4.295,0.91,5.193
	c0.606,0.895,1.302,1.343,2.079,1.343h0.543v1.174h-8.143v-1.174c1.262-0.02,2.129-0.522,2.622-1.52
	c0.491-0.977,0.739-2.651,0.739-5.017v-31.25l-0.516-1.236c-0.481-1.213-0.907-2.012-1.275-2.39
	c-0.371-0.389-0.905-0.594-1.602-0.642v-1.172h8.135l11.238,27.365v-18.91c0-2.681-0.197-4.491-0.591-5.435
	c-0.538-1.276-1.447-1.891-2.722-1.849v-1.172H251.996z"/>
<path fill="#21B28A" d="M251.096,132.697l-0.736,0.744c-0.31-0.25-0.703-0.511-1.164-0.8l-5.143,5.204l-0.587,0.593l-3.612,3.658
	c-0.776,0.787-1.18,1.358-1.189,1.724c-0.034,0.504,0.184,0.986,0.66,1.456l0.493,0.481l-0.356,0.359l-5.41-5.341l0.356-0.358
	l0.472,0.469c0.529,0.523,1.087,0.729,1.652,0.612c0.319-0.06,0.838-0.447,1.539-1.163l8.051-8.146
	c0.771-0.786,1.17-1.366,1.185-1.725c0.027-0.508-0.198-0.998-0.675-1.475l-0.475-0.468l0.351-0.353L251.096,132.697z"/>
<path fill="#21B28A" d="M245.97,127.631l-0.361,0.358l-0.471-0.468c-0.491-0.49-1.085-0.661-1.761-0.51
	c-0.316,0.06-0.818,0.447-1.517,1.149l-5.029,5.088c-1.249,1.26-2.338,2.115-3.268,2.563c-0.938,0.44-2.02,0.552-3.246,0.324
	c-1.219-0.229-2.468-0.965-3.729-2.206c-1.37-1.358-2.179-2.625-2.419-3.805c-0.239-1.178-0.119-2.321,0.378-3.419
	c0.345-0.744,1.27-1.873,2.764-3.389l4.858-4.916c0.758-0.763,1.151-1.37,1.174-1.824c0.026-0.449-0.196-0.903-0.668-1.373
	l-0.471-0.461l0.352-0.358l5.41,5.349l-0.352,0.35l-0.475-0.469c-0.517-0.509-1.046-0.709-1.591-0.604
	c-0.374,0.075-0.903,0.455-1.599,1.157l-5.413,5.48c-0.481,0.488-0.984,1.087-1.521,1.805c-0.535,0.724-0.856,1.371-0.968,1.957
	c-0.108,0.585-0.059,1.213,0.153,1.875c0.221,0.667,0.648,1.316,1.295,1.949c0.82,0.814,1.736,1.365,2.738,1.647
	c1.004,0.283,1.9,0.262,2.691-0.061c0.789-0.324,1.841-1.151,3.167-2.488l5.021-5.087c0.773-0.778,1.166-1.356,1.186-1.722
	c0.03-0.509-0.189-1-0.676-1.475l-0.475-0.462l0.352-0.357L245.97,127.631z"/>
<path fill="#21B28A" d="M233.41,156.203l0.292,1.257l-0.871,0.866l-5.481,1.346l-2.89,0.576l-0.577,0.388l-0.291,0.577l-0.29,0.675
	l5.491,5.681l0.29,2.6l0.569,0.869l0.292,4.141l-0.292,0.968l-2.016,1.533l-2.599,0.676l-5.203,6.353l-0.291,0.968l-0.861,0.86
	l-9.25,1.059l-2.79,1.255l-0.576-0.386l-4.906-5.683l0.287-1.25l1.729-1.929v-1.923l-1.244-2.211l4.134-0.869l2.217-1.64
	l0.573-0.285l0.868-1.927c0.292-6.355,7.803-12.421,6.356-18.774l-0.372-1.386l-0.489-1.791l-0.871-1.545l-1.447-1.256l-1.439-0.282
	l-2.89-2.219l-1.93-0.385l-2.887,0.385l-0.868,0.289l-0.577-0.289l-1.15-2.31l-0.292-0.577l-2.308-1.924l0.292-1.833l0.295-0.207
	l2.013-1.427l0.577-0.385l0.573-0.291l0.866-1.253l1.643-0.291l4.905-0.667l1.448-0.291l0.576-0.386l5.778,2.31l1.729,1.253
	l1.158,1.924l0.291,0.579l1.156,0.963l4.265,2.468l0.068,0.062l0.571,3.537l1.741,1.246l3.462,2.509l0.293,0.676l0.858,6.352
	L233.41,156.203z"/>
<path fill="#21B28A" d="M230.834,112.151l-4.259,4.308l-0.359-0.352c0.702-0.93,1.15-1.785,1.351-2.563
	c0.193-0.772,0.168-1.564-0.081-2.377c-0.251-0.813-0.655-1.503-1.229-2.06c-0.639-0.642-1.37-0.966-2.177-0.995
	c-0.807-0.02-1.461,0.223-1.955,0.716c-0.374,0.387-0.586,0.871-0.636,1.443c-0.074,0.846,0.228,2.363,0.903,4.563
	c0.559,1.789,0.881,3.066,0.987,3.829c0.097,0.767,0.039,1.49-0.181,2.179c-0.222,0.688-0.571,1.282-1.069,1.777
	c-0.936,0.952-2.114,1.407-3.543,1.366c-1.42-0.042-2.708-0.641-3.871-1.792c-0.366-0.358-0.683-0.733-0.955-1.104
	c-0.153-0.221-0.445-0.725-0.858-1.518c-0.405-0.791-0.694-1.269-0.855-1.426c-0.158-0.152-0.321-0.228-0.508-0.22
	c-0.18,0-0.433,0.123-0.767,0.371l-0.358-0.352l4.26-4.307l0.361,0.352c-0.732,1.062-1.188,1.951-1.358,2.674
	c-0.176,0.716-0.126,1.501,0.144,2.35c0.26,0.846,0.729,1.606,1.4,2.266c0.767,0.766,1.581,1.158,2.432,1.193
	c0.854,0.034,1.554-0.222,2.109-0.78c0.303-0.31,0.522-0.71,0.667-1.192c0.146-0.481,0.168-1.032,0.084-1.66
	c-0.062-0.427-0.332-1.469-0.813-3.136c-0.493-1.661-0.78-2.902-0.884-3.708c-0.103-0.814-0.058-1.55,0.133-2.219
	c0.193-0.662,0.542-1.254,1.062-1.779c0.888-0.902,2.002-1.337,3.351-1.301c1.333,0.028,2.54,0.579,3.606,1.634
	c0.671,0.659,1.223,1.53,1.655,2.59c0.193,0.496,0.365,0.814,0.507,0.951c0.163,0.158,0.342,0.247,0.534,0.247
	c0.203,0.008,0.468-0.102,0.816-0.323L230.834,112.151z"/>
<path fill="#21B28A" d="M227.55,248.313v1.174h-11.044v-1.174h0.455c0.889,0,1.512-0.242,1.867-0.726
	c0.248-0.353,0.371-0.862,0.371-1.521c0-0.393-0.032-0.802-0.101-1.222c-0.022-0.2-0.193-1.026-0.503-2.481l-1.241-5.527h-8.008
	l-1.002,4.322c-0.316,1.454-0.468,2.645-0.468,3.596c0,1.251,0.255,2.174,0.771,2.765c0.302,0.352,1.049,0.619,2.242,0.794v1.174
	h-7.588v-1.174c0.814-0.242,1.489-0.903,2.019-1.994c0.522-1.086,1.171-3.326,1.952-6.734l8.164-35.42h0.316l8.242,36.407
	c0.777,3.464,1.429,5.651,1.931,6.554C226.313,247.81,226.852,248.202,227.55,248.313 M216.811,234.405l-3.404-15.186l-3.503,15.186
	H216.811z"/>
<polygon fill="#21B28A" points="226.188,141.186 226.195,141.214 226.127,141.152 "/>
<path fill="#21B28A" d="M215.472,96.977l-6.017,14.742c-0.475,1.185-0.688,2.047-0.648,2.576c0.043,0.534,0.307,1.069,0.789,1.606
	l-0.354,0.358l-5.004-4.941l0.354-0.357c0.521,0.468,0.942,0.723,1.259,0.758c0.319,0.034,0.572-0.048,0.772-0.256
	c0.27-0.27,0.566-0.813,0.891-1.642l1.054-2.575l-4.891-4.832l-2.833,1.138c-0.697,0.274-1.16,0.536-1.395,0.778
	c-0.193,0.186-0.27,0.448-0.228,0.772c0.042,0.323,0.349,0.805,0.912,1.453l-0.354,0.353l-3.983-3.935l0.352-0.352
	c0.621,0.427,1.076,0.641,1.378,0.641c0.613,0.013,1.563-0.25,2.854-0.787l14.692-5.893L215.472,96.977z M208.973,106.246
	l2.942-7.161l-7.229,2.922L208.973,106.246z"/>
<path fill="#21B28A" d="M214.155,151.007v3.178l-0.287,0.965l-1.159,3.756l-4.038,6.065l-0.581,4.713l-1.447,2.315l-5.195,0.86
	h-1.736l-0.579,0.965l-0.279,2.888l-1.739,2.125l-1.16,0.668l-2.019,0.386l-1.447,0.29h-1.438l-2.311-1.923l-1.158-0.29
	l-1.157-1.256l-0.576-0.957h-5.779l-4.235-1.931l-2.021-2.211l-0.387-1.255l-1.061-1.536l-1.829-3.563l-0.289-6.354l3.852-5.686
	l0.482-2.889l-0.482-0.957l1.925-2.219l2.701-5.679l9.146-2.887l0.869,0.289l1.442,2.598l0.29,0.579l1.154,1.055h2.024l0.284-0.671
	l1.442-1.35l2.607-0.29l0.576,0.29l0.858,0.966l0.292,1.924v0.675l1.157,1.248l0.579,0.384l8.085,0.289l1.444,1.256l0.292,0.579
	l1.153,1.345L214.155,151.007z M200.386,155.824l0.292-4.142c-3.468-4.431-6.934-0.289-10.688-0.289l-4.622-1.543l-2.023,0.288
	l-0.579,0.291l-2.598,2.887l-0.581,3.468l0.292,0.676l1.155,1.923l0.289,2.505l-0.865,4.429l0.287,0.676l1.152,2.498l1.447,1.547
	h1.736l4.33-1.258l2.604-1.246l1.729,0.957l4.337-0.571l2.305-3.563l-0.292-1.929v-2.215l-0.286-0.577l-1.44-1.924v-0.676
	l0.29-0.576l0.574-0.386L200.386,155.824z"/>
<path fill="#21B28A" d="M206.568,88.714l-2.612,2.881l-0.383-0.38c0.524-0.785,0.825-1.378,0.907-1.779
	c0.089-0.398,0.042-0.811-0.139-1.24c-0.15-0.337-0.536-0.806-1.157-1.419l-3.409-3.371l-4.908,4.963l2.709,2.673
	c0.71,0.704,1.286,1.069,1.744,1.09c0.599,0.036,1.264-0.29,2.003-0.964l0.359,0.352l-4.314,4.369l-0.356-0.351
	c0.515-0.697,0.816-1.171,0.903-1.434c0.099-0.324,0.087-0.669-0.045-1.04c-0.123-0.373-0.455-0.82-0.97-1.337l-2.708-2.674
	l-4.075,4.127c-0.552,0.56-0.863,0.918-0.931,1.088c-0.066,0.166-0.076,0.344-0.021,0.539c0.049,0.193,0.257,0.461,0.602,0.8
	l2.119,2.103c0.713,0.701,1.276,1.163,1.692,1.382c0.421,0.216,0.918,0.332,1.502,0.332c0.749,0,1.709-0.187,2.867-0.552
	l0.386,0.379l-4.198,2.081l-9.71-9.586l0.354-0.357l0.448,0.44c0.302,0.295,0.655,0.502,1.059,0.627
	c0.3,0.104,0.579,0.083,0.849-0.042c0.27-0.132,0.702-0.495,1.309-1.109l8.045-8.146c0.799-0.806,1.21-1.384,1.239-1.737
	c0.021-0.476-0.225-0.964-0.75-1.482l-0.45-0.447l0.352-0.352L206.568,88.714z"/>
<polygon fill="#21B28A" points="202.888,129.727 203.177,131.27 198.271,135.413 198.271,134.446 197.402,132.517 195.674,130.402 
	194.803,128.093 192.487,127.225 189.023,127.225 186.424,127.225 178.434,127.512 174.873,127.225 170.922,131.655 170.536,131.27 
	170.536,128.479 171.981,121.738 171.504,120.87 171.214,117.694 171.696,116.438 171.981,114.806 171.981,109.023 173.813,103.344 
	173.137,102.379 172.944,101.808 172.944,100.555 "/>
<path fill="#21B28A" d="M201.806,233.815l-0.86,15.671h-20.249v-1.174h0.765c0.664,0,1.2-0.235,1.607-0.697
	c0.298-0.31,0.515-0.834,0.674-1.586c0.123-0.529,0.188-1.917,0.188-4.168v-29.149c0-2.299-0.064-3.725-0.188-4.303
	c-0.121-0.574-0.371-1.076-0.75-1.502c-0.378-0.436-0.89-0.648-1.531-0.648h-0.765v-1.172h12.149v1.172h-0.984
	c-0.663,0-1.192,0.233-1.593,0.696c-0.287,0.309-0.515,0.841-0.683,1.586c-0.124,0.529-0.184,1.921-0.184,4.171v28.243
	c0,2.271,0.066,3.712,0.198,4.332c0.141,0.619,0.403,1.089,0.794,1.393c0.274,0.193,0.949,0.29,2.025,0.29h1.889
	c1.204,0,2.211-0.416,3.018-1.25c0.799-0.826,1.494-2.144,2.08-3.943c0.589-1.799,1.146-4.45,1.67-7.961H201.806z"/>
<polygon fill="#21B28A" points="200.579,178.646 195.377,186.535 195.095,187.886 190.182,188.849 188.739,189.138 185.367,191.35 
	183.054,191.35 175.833,187.886 166.878,183.163 166.588,182.498 166.878,177.098 167.17,175.846 166.878,175.178 167.652,171.712 
	168.038,171.037 169.768,170.747 173.137,175.468 174.391,176.811 182.476,178.354 190.758,182.498 196.356,180.957 
	198.853,180.276 "/>
<polygon fill="#21B28A" points="198.853,153.799 198.853,154.475 195.674,157.94 195.674,159.572 197.692,162.081 198.271,162.757 
	198.271,164.008 196.534,166.507 194.227,166.893 192.205,166.507 191.05,165.646 190.472,165.26 189.893,165.646 188.163,168.147 
	184.694,168.147 183.826,167.185 183.536,164.681 183.244,163.333 184.405,160.829 184.694,160.153 182.668,157.361 
	182.384,154.475 183.536,152.643 184.694,151.297 190.472,153.799 191.05,154.185 192.205,154.185 192.779,153.799 194.803,151.973 
	196.242,151.973 "/>
<polygon fill="#21B28A" points="194.227,130.69 193.935,139.547 193.357,139.933 192.205,139.933 190.472,137.334 190.182,136.755 
	183.826,135.7 176.988,138.299 174.391,140.512 173.813,142.055 172.558,145.618 171.981,143.11 170.922,143.11 170.43,142.055 
	168.803,138.589 168.607,137.913 168.607,136.369 170.922,134.157 176.315,129.339 176.988,129.146 179.299,129.339 
	185.271,129.146 191.915,129.146 "/>
<path fill="#21B28A" d="M191.398,74.302c0.442,0.821,0.628,1.715,0.552,2.674c-0.077,0.965-0.468,1.806-1.187,2.529
	c-0.76,0.779-1.683,1.199-2.755,1.269c-1.075,0.068-2.253-0.312-3.55-1.124l-0.952,6.194c-0.228,1.416-0.263,2.468-0.094,3.166
	c0.148,0.695,0.539,1.419,1.157,2.169l-0.351,0.359l-3.379-3.336l1.538-10.116c-0.324-0.289-0.576-0.53-0.771-0.723
	c-0.082-0.079-0.166-0.166-0.247-0.256c-0.092-0.095-0.181-0.193-0.271-0.295l0.587-0.593c0.116,0.118,0.21,0.22,0.297,0.303
	c0.081,0.088,0.151,0.158,0.205,0.213c1.188,1.171,2.343,1.8,3.459,1.875c1.11,0.076,2.069-0.291,2.861-1.098
	c0.777-0.784,1.166-1.658,1.166-2.631c0-0.971-0.401-1.853-1.203-2.646c-0.129-0.131-0.294-0.269-0.482-0.421l0.74-0.744
	l0.007,0.006C190.063,72.399,190.951,73.476,191.398,74.302"/>
<path fill="#21B28A" d="M188.72,71.071l-0.74,0.744c-0.314-0.241-0.7-0.51-1.162-0.8l-5.141,5.205l-0.587,0.593l-3.611,3.659
	c-0.779,0.785-1.178,1.364-1.19,1.723c-0.037,0.504,0.186,0.986,0.658,1.453l0.49,0.491l-0.352,0.359l-5.408-5.349l0.349-0.359
	l0.478,0.47c0.532,0.531,1.081,0.728,1.655,0.61c0.316-0.059,0.826-0.446,1.534-1.162l8.045-8.148
	c0.779-0.783,1.178-1.356,1.192-1.722c0.027-0.509-0.2-0.998-0.676-1.468l-0.478-0.468l0.349-0.357L188.72,71.071z"/>
<path fill="#21B28A" d="M183.178,65.605l-2.813,3.082l-0.352-0.345c0.448-0.585,0.718-1.053,0.821-1.392
	c0.166-0.544,0.171-1.063,0.027-1.543c-0.153-0.482-0.482-0.979-0.999-1.489l-1.757-1.737l-9.517,9.627
	c-0.752,0.766-1.139,1.324-1.158,1.684c-0.01,0.496,0.235,0.992,0.737,1.481l0.438,0.44l-0.35,0.359l-5.407-5.343l0.349-0.357
	l0.455,0.449c0.537,0.529,1.084,0.75,1.618,0.66c0.341-0.062,0.841-0.433,1.528-1.129l9.522-9.635l-1.52-1.501
	c-0.591-0.587-1.054-0.952-1.393-1.11c-0.433-0.207-0.938-0.255-1.494-0.145c-0.566,0.111-1.146,0.428-1.749,0.952l-0.354-0.352
	l3.048-2.847L183.178,65.605z"/>
<path fill="#21B28A" d="M176.887,208.478c1.433,2.262,2.147,5.093,2.147,8.48c0,2.878-0.46,5.332-1.383,7.376
	c-0.923,2.047-2.192,3.44-3.81,4.178c-1.091,0.522-2.939,0.784-5.536,0.784v12.399c0,2.414,0.074,3.936,0.237,4.557
	c0.15,0.625,0.426,1.131,0.816,1.502c0.4,0.371,1.122,0.559,2.179,0.559v1.174h-11.716v-1.174c1.076,0,1.806-0.193,2.191-0.581
	c0.379-0.378,0.648-0.881,0.805-1.494c0.15-0.616,0.237-2.128,0.237-4.542v-28.821c0-2.412-0.087-3.936-0.237-4.556
	c-0.156-0.626-0.426-1.129-0.819-1.502c-0.386-0.371-1.118-0.558-2.177-0.558v-1.172h9.984
	C173.095,205.087,175.459,206.217,176.887,208.478 M173.474,217.129c0-3.326-0.371-5.766-1.121-7.3
	c-0.745-1.549-1.863-2.317-3.35-2.317h-0.697v19.353c0.373,0.049,0.663,0.071,0.849,0.071c1.382,0,2.453-0.804,3.198-2.401
	C173.103,222.942,173.474,220.47,173.474,217.129"/>
<polygon fill="#21B28A" points="171.407,151.105 171.407,152.739 168.229,157.46 167.652,158.712 166.781,163.138 167.362,165.453 
	167.941,166.7 168.521,167.375 168.521,168.243 166.781,168.919 165.626,174.982 164.476,176.229 163.315,175.563 158.399,175.846 
	153.786,173.923 151.476,173.923 150.028,173.923 149.256,166.024 148.396,164.488 148.106,163.813 148.872,159.961 
	150.028,159.096 150.319,157.46 155.224,150.813 158.981,147.347 168.803,146.962 169.092,146.671 168.229,145.136 167.652,142.82 
	168.521,142.529 168.803,142.82 169.092,145.136 170.536,146.962 "/>
<path fill="#21B28A" d="M170.054,92.656l1.16,12.039l-1.16,1.923v2.218l-1.149,7.891l-2.316,20.704l-0.865,6.935h-2.311h-1.161
	l-3.174,1.252l-0.571,0.378l0.861-4.423c3.129-12.604-3.624-25.521-0.726-38.18c0.319-1.371,0.74-2.735,1.307-4.095l-0.581-1.632
	l-0.29-0.579l0.29-7.607l-4.04-5.391l-0.576-1.639l-2.604-4.426l-5.625-4.761l-1.881-1.592l0.076-0.944l8.009,0.654l4.334,4.424
	l1.729,0.676l6.935,5.969l1.447,3.177l0.289,1.928l1.148,3.177L170.054,92.656z"/>
<polygon fill="#21B28A" points="165.626,184.321 166.781,185.578 166.494,185.865 157.833,185.865 157.754,185.59 155.901,178.646 
	163.315,178.258 163.895,178.547 164.187,183.356 "/>
<path fill="#21B28A" d="M157.833,129.727l0.566,0.964l-1.147,13.963l-0.29,0.964l-6.643,9.532l-1.738,2.501l-0.281,1.922
	l-1.16,1.547l-0.579,5.388l1.738,2.315v5.97l0.281,0.579l0.58,0.665l2.887,0.676l1.447,0.292l0.868,0.964l-0.289,5.678l2.311,2.309
	l-18.097,0.289l-0.291-1.343l0.291-2.212l-0.581-0.965v-5.688v-2.501l0.863-9.527v-1.251v-7.607l-0.863-1.64l-0.578-2.212
	l1.159-5.68l-0.581-8.284l0.581-5.39l-0.581-3.176l1.151-7.03l-1.151-1.833l1.635-12.13l-2.792-5.677l-0.291-0.676l3.083-10.786
	l2.411-12.033l2.596-3.466l1.153-0.675l3.948,4.141l0.87,1.345l0.868,0.868l0.577,2.887l2.891,6.934l0.287,2.213
	c1.702,3.494,2.998,6.781,2.322,10.213c-0.123,0.634-0.313,1.275-0.591,1.922l-0.289,3.467l-0.868,4.811l0.868,1.544
	L157.833,129.727z"/>
<path fill="#21B28A" d="M149.567,205.087v1.172c-0.972,0.241-1.627,0.558-1.958,0.936c-0.331,0.389-0.593,1.015-0.777,1.883
	c-0.186,0.871-0.284,2.357-0.284,4.465v36.947h-0.571l-15.411-36.838v28.125c0,2.562,0.303,4.295,0.911,5.193
	c0.606,0.895,1.302,1.343,2.082,1.343h0.543v1.174h-8.146v-1.174c1.262-0.02,2.13-0.522,2.626-1.52
	c0.49-0.977,0.737-2.651,0.737-5.017v-31.25l-0.517-1.236c-0.482-1.213-0.905-2.012-1.274-2.39c-0.374-0.389-0.903-0.594-1.6-0.642
	v-1.172h8.132l11.241,27.365v-18.91c0-2.681-0.202-4.491-0.592-5.435c-0.538-1.276-1.447-1.891-2.724-1.849v-1.172H149.567z"/>
<polygon fill="#21B28A" points="144.716,70.727 144.64,71.67 142.034,74.172 139.437,75.233 138.857,75.516 137.997,77.35 
	137.997,81.202 137.128,83.124 136.549,88.804 135.969,90.057 135.679,91.697 135.102,94.874 133.661,101.517 133.661,102.765 
	135.393,105.943 136.259,111.339 133.951,134.254 134.529,138.685 135.102,139.643 135.102,151.297 135.102,153.22 135.679,153.896 
	135.969,164.103 135.102,163.717 133.951,161.792 131.222,159.746 128.175,157.46 127.597,154.571 126.729,152.937 126.437,151.394 
	125.495,146.818 123.937,139.257 123.937,136.467 124.129,135.218 122.682,132.332 122.489,126.549 121.525,122.504 120.76,119.327 
	118.39,99.664 118.347,99.298 118.161,98.631 118.161,97.086 119.022,95.831 119.312,92.946 121.911,86.59 127.306,78.981 
	130.772,76.096 133.082,74.172 135.679,72.056 140.883,70.417 "/>
<polygon fill="#21B28A" points="135.969,181.724 135.969,186.243 129.326,186.243 129.519,183.163 127.016,182.013 128.175,174.116 
	128.458,173.245 129.615,171.999 134.529,169.111 135.969,169.401 135.969,172.578 "/>
<polygon fill="#21B28A" points="130.194,161.119 134.529,166.225 134.24,166.893 133.661,167.475 132.214,167.762 129.615,169.111 
	127.886,170.65 124.709,173.535 122.393,174.116 120.663,175.178 118.347,177.58 117.775,178.837 111.422,179.505 107.087,179.505 
	103.042,176.423 102.461,175.755 103.042,173.245 103.331,172.291 104.2,171.326 106.797,170.94 107.377,170.65 109.395,170.65 
	113.15,170.358 114.599,169.401 116.04,168.147 123.84,166.893 125.281,166.225 126.729,164.582 125.57,163.333 122.393,162.757 
	116.04,163.041 111.422,163.717 105.64,165.928 102.461,165.26 102.269,164.582 103.331,156.203 105.06,155.824 107.666,153.799 
	110.553,153.992 113.054,154.378 "/>
<polygon fill="#21B28A" points="125.57,184.415 127.016,185.954 106.894,185.954 103.621,184.034 95.896,178.797 95.53,178.547 
	95.239,177.58 99.287,175.178 99.864,174.792 100.732,174.792 100.884,175.96 101.021,177.004 101.883,178.837 102.174,179.505 
	104.779,181.432 106.508,181.432 108.237,182.401 114.888,183.067 117.775,182.401 118.347,182.013 118.926,181.724 121.821,177.58 
	122.393,177.293 124.129,177.004 125.57,177.58 123.84,184.321 124.129,184.9 "/>
<path fill="#21B28A" d="M125.116,248.313v1.174h-11.041v-1.174h0.454c0.89,0,1.511-0.242,1.868-0.726
	c0.249-0.353,0.372-0.862,0.372-1.521c0-0.393-0.034-0.802-0.103-1.222c-0.02-0.2-0.193-1.026-0.503-2.481l-1.241-5.527h-8.007
	l-0.999,4.322c-0.318,1.454-0.469,2.645-0.469,3.596c0,1.251,0.255,2.174,0.772,2.765c0.302,0.352,1.046,0.619,2.24,0.794v1.174
	h-7.589v-1.174c0.814-0.242,1.49-0.903,2.019-1.994c0.524-1.086,1.172-3.326,1.952-6.734l8.166-35.42h0.318l8.241,36.407
	c0.786,3.464,1.428,5.651,1.937,6.554C123.882,247.81,124.42,248.202,125.116,248.313 M114.377,234.405l-3.404-15.186l-3.501,15.186
	H114.377z"/>
<path fill="#21B28A" d="M123.84,147.155l0.581,8.954l-3.466-1.635l-2.028-0.29l-5.616-1.104l-5.644-1.108h-0.579l-0.579,0.571
	l-2.406-0.096c-1.06-5.969-1.641-11.359,2.406-17.326l2.02-1.254l0.579-0.29l0.868-1.061l0.289-0.573l-0.289-0.963l-1.158-1.254
	l-4.328-0.387l-2.219,2.316l-2.695,1.536l-2.31,1.931l-1.059,0.291l-3.275,2.886l-2.501,1.924l-2.599,0.289l-1.446,1.254
	l-3.853,1.634l-1.922,1.542l-0.284,0.221l-1.839,1.411l-2.696-3.947l17.139-16.656l17.044-19.064l6.066-7.029h0.579l0.867,11.461
	l-1.156,8.566l2.887,4.142l0.291,4.721l0.288,4.423l0.868,1.255l-0.289,4.432L123.84,147.155z"/>
<path fill="#21B28A" d="M118.672,60.852l3.991,3.563c-0.27,1.095-0.636,2.094-1.097,2.984c-0.462,0.887-1.088,1.777-1.88,2.667
	c-2.274,2.542-4.816,3.75-7.622,3.612c-2.116-0.103-3.972-0.87-5.568-2.296c-1.158-1.041-2.021-2.31-2.585-3.81
	c-0.674-1.792-0.835-3.571-0.482-5.328c0.297-1.468,1.034-2.862,2.206-4.179c0.434-0.481,0.862-0.88,1.29-1.205
	c0.426-0.318,1.095-0.723,2.005-1.199c0.461-0.24,0.752-0.427,0.855-0.551c0.11-0.118,0.151-0.277,0.118-0.461
	c-0.042-0.194-0.216-0.449-0.532-0.765l0.332-0.373l4.458,3.417l-0.332,0.374c-1.35-0.586-2.521-0.842-3.535-0.773
	c-1.454,0.097-2.729,0.758-3.825,1.985c-1.488,1.667-1.956,3.529-1.413,5.581c0.468,1.725,1.474,3.281,3.02,4.66
	c1.254,1.118,2.611,1.895,4.087,2.331c1.467,0.44,2.79,0.481,3.976,0.124c1.185-0.359,2.151-0.959,2.887-1.787
	c0.436-0.489,0.8-1.012,1.084-1.57c0.281-0.564,0.496-1.158,0.632-1.792l-3.741-3.342c-0.668-0.6-1.159-0.945-1.455-1.035
	c-0.302-0.082-0.599-0.069-0.895,0.048c-0.302,0.116-0.689,0.441-1.171,0.979l-0.374-0.337l4.598-5.141l0.373,0.338l-0.228,0.247
	c-0.461,0.524-0.614,1.034-0.44,1.538C117.527,59.706,117.947,60.203,118.672,60.852"/>
<path fill="#21B28A" d="M110.574,80.133l-0.318,0.358l-18.399-0.773l8.132,7.257c0.799,0.719,1.378,1.077,1.736,1.077
	c0.49-0.013,0.971-0.276,1.435-0.799l0.425-0.476l0.373,0.331l-4.176,4.68l-0.373-0.338l0.413-0.461
	c0.518-0.579,0.711-1.131,0.594-1.668c-0.076-0.324-0.484-0.813-1.208-1.469l-9.2-8.213c-0.786-0.013-1.343,0.013-1.66,0.081
	c-0.326,0.076-0.718,0.242-1.179,0.518c-0.228,0.138-0.509,0.4-0.854,0.779l-0.373-0.332l3.199-3.576l17.077,0.704l-7.575-6.767
	c-0.805-0.718-1.384-1.069-1.749-1.063c-0.482,0.007-0.966,0.269-1.435,0.8l-0.419,0.461l-0.374-0.331l4.177-4.68l0.373,0.338
	l-0.426,0.476c-0.504,0.564-0.698,1.116-0.581,1.653c0.076,0.331,0.484,0.819,1.213,1.469L110.574,80.133z"/>
<path fill="#21B28A" d="M106.797,131.655v0.676l-1.641,1.343l-2.114,2.116c-2.213,5.107-3.468,10.496-2.502,15.604
	c1.729,6.066-2.124,11.363-5.01,17.139l-2.214,2.504l-0.674,0.289l-3.66,0.386l-1.438-0.386l-1.896-1.324l-1.283-0.891l-2.895-0.289
	l-4.616-4.142l-0.58-0.289l-1.446-0.964l4.335-4.424l0.576-1.257l-0.576-7.896v-1.345l2.024-2.219l3.466-1.921l1.73-0.291
	l0.772-0.964l2.115-0.291l0.773-0.667l1.438-0.292l2.123-1.929l0.774-0.29l7.601-5.389l1.447-1.255l1.922-1.343H106.797z
	 M97.942,143.11v-0.957l-1.253-1.256h-0.483l-3.852,4.72l-1.634,2.888l-0.291,1.924l-3.273,4.431l-1.061,1.535l-1.16,1.352
	l-0.667,2.214l-3.178,3.467v1.929l0.958,0.868l2.219,1.052h1.827l2.211-2.596l0.291-0.964l-0.291-1.539l0.291-1.641l0.867-1.922
	l2.694-4.044l1.931-3.466L97.942,143.11z"/>
<polygon fill="#21B28A" points="102.751,185.865 101.883,186.824 87.349,186.726 87.734,185.189 88.023,184.321 87.156,179.891 
	83.496,173.632 81.566,171.228 81.09,170.94 82.821,170.65 85.13,170.747 85.321,171.326 88.885,176.712 89.753,177.968 
	94.089,179.891 94.95,180.181 101.31,185.578 102.174,185.865 "/>
<polygon fill="#21B28A" points="101.407,168.533 101.696,169.49 101.407,170.458 99.67,172.674 97.653,172.959 97.073,173.345 
	94.765,175.468 93.028,177.098 89.271,174.599 89.561,173.923 92.449,173.632 96.784,171.42 98.223,170.168 99.961,169.208 
	100.829,168.243 "/>
<path fill="#21B28A" d="M99.947,248.313v1.174H88.018v-1.174h0.744c0.674,0,1.219-0.235,1.621-0.697
	c0.282-0.31,0.508-0.834,0.681-1.586c0.124-0.529,0.186-1.917,0.186-4.168v-32.888l-5.505,25.623l-1.241-0.269l6.196-29.241h9.248
	v1.172h-0.745c-0.674,0-1.218,0.233-1.618,0.703c-0.283,0.31-0.511,0.834-0.677,1.57c-0.129,0.538-0.192,1.93-0.192,4.18v29.149
	c0,2.293,0.063,3.73,0.192,4.299c0.119,0.574,0.373,1.074,0.758,1.504c0.387,0.436,0.896,0.648,1.537,0.648H99.947z"/>
<path fill="#21B28A" d="M98.976,92.696l-5.066,5.672L93.53,98.03l0.423-0.468c0.486-0.552,0.688-1.089,0.591-1.62
	c-0.062-0.336-0.488-0.861-1.275-1.564l-8.546-7.629c-0.661-0.594-1.137-0.945-1.424-1.048c-0.223-0.075-0.478-0.069-0.779,0.035
	c-0.409,0.145-0.752,0.379-1.035,0.689L81.063,86.9l-0.373-0.336l5.066-5.671l0.371,0.329l-0.425,0.482
	c-0.484,0.538-0.677,1.076-0.581,1.599c0.063,0.351,0.489,0.875,1.275,1.579l8.539,7.623c0.662,0.6,1.144,0.944,1.428,1.047
	c0.218,0.083,0.481,0.069,0.784-0.034c0.407-0.138,0.745-0.365,1.028-0.684l0.421-0.475L98.976,92.696z"/>
<path fill="#21B28A" d="M80.513,91.332l7.118,14.624l-0.365,0.408l-15.741-5.224c-0.813-0.27-1.331-0.415-1.557-0.429
	c-0.345-0.012-0.683,0.043-1.006,0.181c-0.324,0.137-0.683,0.392-1.076,0.766l-0.371-0.339l4.829-5.411l0.375,0.332
	c-0.483,0.662-0.732,1.15-0.743,1.47c-0.016,0.315,0.096,0.577,0.329,0.782c0.324,0.291,0.965,0.594,1.916,0.911l10.738,3.563
	l-4.844-9.959c-0.483-0.979-0.871-1.598-1.166-1.859c-0.187-0.165-0.448-0.234-0.793-0.2c-0.337,0.035-0.743,0.242-1.213,0.627
	c-0.034,0.027-0.097,0.077-0.177,0.139l-0.373-0.333l3.618-4.051l0.372,0.331c-0.331,0.544-0.504,1.034-0.504,1.46
	C79.886,89.746,80.098,90.485,80.513,91.332"/>
<path fill="#21B28A" d="M85.744,234.597l-3.207,14.89h-0.405l-8.884-40.216v31.255c0,2.196,0.027,3.549,0.083,4.058
	c0.151,1.095,0.462,1.99,0.95,2.685c0.484,0.696,1.248,1.045,2.29,1.045v1.174h-7.843v-1.174h0.242
	c0.508,0.02,0.984-0.142,1.427-0.478c0.439-0.343,0.771-0.8,0.997-1.37c0.228-0.571,0.406-1.378,0.53-2.411
	c0.021-0.244,0.035-1.369,0.035-3.363v-27.979c0-2.299-0.063-3.725-0.187-4.296c-0.124-0.573-0.385-1.068-0.763-1.506
	c-0.387-0.433-0.903-0.651-1.551-0.651h-0.73v-1.172h9.353l6.422,29.241L85.744,234.597z"/>
<polygon fill="#21B28A" points="85.13,181.145 85.419,181.724 83.978,190.677 83.4,191.253 82.821,191.931 81.373,193.181 
	77.915,193.181 77.047,193.854 70.113,193.181 67.224,193.854 66.454,194.432 62.89,193.854 61.161,194.145 61.161,188.463 
	62.31,188.463 62.31,192.316 65.198,188.752 69.823,185.578 70.981,185.286 74.157,182.688 75.888,181.145 76.756,180.757 
	78.004,178.933 80.609,179.602 81.47,179.319 81.76,178.646 80.609,177.098 79.739,174.889 80.629,173.923 82.821,175.947 
	84.461,179.223 83.882,183.067 "/>
<polygon fill="#21B28A" points="80.629,173.923 79.739,174.889 78.487,174.116 76.854,173.535 76.562,177.387 76.177,176.712 
	69.534,180.181 67.515,181.822 64.619,183.936 62.31,188.463 61.161,188.463 61.161,176.712 64.619,169.111 65.006,168.147 
	67.224,165.928 69.34,165.26 73.29,165.646 77.334,168.437 78.776,171.613 80.223,171.037 79.065,172.481 "/>
<path fill="#21B28A" d="M80.174,113.746l-5.064,5.67l-0.381-0.331l0.429-0.47c0.488-0.55,0.681-1.087,0.591-1.618
	c-0.069-0.345-0.495-0.87-1.281-1.572l-8.539-7.623c-0.668-0.593-1.143-0.943-1.434-1.047c-0.221-0.082-0.476-0.068-0.771,0.028
	c-0.413,0.152-0.758,0.378-1.041,0.695l-0.42,0.468l-0.373-0.33l5.066-5.679l0.37,0.337l-0.419,0.475
	c-0.483,0.546-0.675,1.075-0.586,1.606c0.064,0.345,0.49,0.869,1.276,1.572l8.538,7.629c0.668,0.592,1.144,0.942,1.433,1.047
	c0.215,0.082,0.477,0.069,0.78-0.034c0.407-0.147,0.744-0.373,1.028-0.683l0.427-0.475L80.174,113.746z"/>
<polygon fill="#21B28A" points="71.939,144.461 73.29,147.54 72.615,153.316 71.456,154.957 70.113,156.203 67.894,156.302 
	65.102,155.149 64.047,153.992 61.161,152.448 59.616,151.874 56.246,149.657 56.052,150.429 54.034,149.278 53.649,148.981 
	52.973,149.084 52.298,149.375 53.07,151.586 53.552,151.779 55.089,151.779 56.729,152.448 60.099,155.438 63.952,156.686 
	65.295,157.361 66.549,157.747 67.129,157.65 67.515,157.361 68.183,157.846 67.99,158.712 67.707,161.792 67.61,164.582 
	66.728,165.163 65.681,165.839 59.52,165.55 57.02,164.103 56.537,163.717 55.668,161.987 40.071,145.33 39.203,143.979 
	47.39,144.075 55.185,142.247 57.211,141.38 61.733,141.67 64.813,139.643 66.584,139.809 66.838,139.836 "/>
<path fill="#21B28A" d="M70.699,117.154l2.57,4.316l-9.125,10.227l-0.378-0.332l0.447-0.502c0.495-0.558,0.677-1.117,0.529-1.676
	c-0.081-0.323-0.496-0.81-1.239-1.482l-8.539-7.629c-0.82-0.729-1.419-1.095-1.785-1.095c-0.51,0-0.993,0.25-1.435,0.752
	l-0.446,0.496l-0.374-0.336l5.314-5.956l0.379,0.336c-0.626,0.69-0.998,1.229-1.109,1.627c-0.11,0.4-0.11,0.746,0,1.034
	c0.118,0.283,0.558,0.771,1.338,1.466l8.311,7.424c0.538,0.484,0.958,0.757,1.248,0.833c0.207,0.048,0.421,0.016,0.627-0.088
	c0.206-0.104,0.696-0.58,1.453-1.434l0.862-0.965c0.902-1.008,1.46-1.786,1.68-2.329c0.215-0.539,0.283-1.152,0.208-1.827
	c-0.076-0.677-0.373-1.544-0.889-2.612L70.699,117.154z"/>
<path fill="#21B28A" d="M66.847,205.087v11.978h-0.602c-0.357-2.771-0.757-4.762-1.199-5.976c-0.44-1.212-1.04-2.176-1.806-2.902
	c-0.434-0.391-1.178-0.591-2.254-0.591h-1.674v34.266c0,2.293,0.061,3.73,0.193,4.299c0.124,0.574,0.379,1.074,0.75,1.504
	c0.373,0.436,0.884,0.648,1.531,0.648h0.75v1.174H50.608v-1.174h0.76c0.662,0,1.19-0.235,1.598-0.697
	c0.289-0.31,0.517-0.834,0.689-1.586c0.123-0.529,0.187-1.917,0.187-4.168v-34.266h-1.681c-1.552,0-2.681,0.643-3.386,1.901
	c-0.984,1.77-1.611,4.293-1.873,7.567h-0.6v-11.978H66.847z"/>
<path fill="#21B28A" d="M59.712,172.385v0.668l-2.018,0.967l-0.579,0.29l-1.158,1.638l-0.289,0.574l0.289,0.675l-0.868,0.289
	l0.096,0.965l-0.673,3.177l-2.793,4.048h-2.887l-7.794-4.437l-0.29-0.575l-4.237-3.467l-1.738-3.564l-1.152-1.536l-2.887-10.208
	l0.29-0.576l9.434-0.676l12.516,1.542l0.676,1.83l4.328,3.66l1.543,4.044L59.712,172.385z M53.455,175.079v-0.866l-0.289-0.581
	l-14.543-7.793l-2.791,0.478v1.445l0.579,0.675l1.73,2.021l11.074,5.489l2.308,0.574L53.455,175.079z"/>
<polygon fill="#21B28A" points="59.424,174.889 59.424,188.173 51.718,188.173 51.718,186.824 55.571,181.916 57.115,176.521 "/>
<polygon fill="#21B28A" points="51.718,186.824 51.718,188.173 34.007,188.173 39.685,181.916 47.963,186.824 "/>
<path fill="#21B28A" d="M47.025,233.815l-0.861,15.671H25.916v-1.174h0.766c0.662,0,1.199-0.235,1.605-0.697
	c0.29-0.31,0.519-0.834,0.675-1.586c0.125-0.529,0.187-1.917,0.187-4.168v-29.149c0-2.299-0.062-3.725-0.187-4.303
	c-0.125-0.574-0.372-1.076-0.75-1.502c-0.38-0.436-0.89-0.648-1.53-0.648h-0.766v-1.172h12.151v1.172h-0.985
	c-0.663,0-1.192,0.233-1.593,0.696c-0.288,0.309-0.515,0.841-0.681,1.586c-0.124,0.529-0.186,1.921-0.186,4.171v28.243
	c0,2.271,0.062,3.712,0.199,4.332c0.131,0.619,0.399,1.089,0.785,1.393c0.284,0.193,0.959,0.29,2.026,0.29h1.895
	c1.207,0,2.212-0.416,3.013-1.25c0.806-0.826,1.501-2.144,2.088-3.943c0.585-1.799,1.144-4.45,1.667-7.961H47.025z"/>
<path fill="#21B28A" d="M24.889,248.313v1.174h-11.04v-1.174h0.454c0.89,0,1.509-0.242,1.868-0.726
	c0.248-0.353,0.373-0.862,0.373-1.521c0-0.393-0.034-0.802-0.104-1.222c-0.021-0.2-0.193-1.026-0.502-2.481l-1.241-5.527H6.688
	l-0.999,4.322c-0.317,1.454-0.469,2.645-0.469,3.596c0,1.251,0.256,2.174,0.773,2.765c0.302,0.352,1.046,0.619,2.238,0.794v1.174
	H0.644v-1.174c0.812-0.242,1.489-0.903,2.02-1.994c0.524-1.086,1.179-3.326,1.95-6.734l8.166-35.42h0.319l8.241,36.407
	c0.786,3.464,1.427,5.651,1.937,6.554C23.657,247.81,24.192,248.202,24.889,248.313 M14.151,234.405l-3.404-15.186l-3.501,15.186
	H14.151z"/>
</svg>
