<?xml version="1.0" encoding="utf-8"?>
<!-- Generator: Adobe Illustrator 16.0.0, SVG Export Plug-In . SVG Version: 6.00 Build 0)  -->
<!DOCTYPE svg PUBLIC "-//W3C//DTD SVG 1.1//EN" "http://www.w3.org/Graphics/SVG/1.1/DTD/svg11.dtd">
<svg version="1.1" id="Layer_1" xmlns="http://www.w3.org/2000/svg" xmlns:xlink="http://www.w3.org/1999/xlink" x="0px" y="0px"
	 width="120px" height="120px" viewBox="0 0 120 120" enable-background="new 0 0 120 120" xml:space="preserve">
<polygon fill="#21B28A" points="119.782,79.852 119.782,82.094 119.48,82.094 119.48,80.157 118.719,82.094 118.455,82.094 
	117.693,80.157 117.731,82.094 117.391,82.094 117.391,79.852 117.922,79.852 118.604,81.602 119.29,79.852 "/>
<polygon fill="#21B28A" points="117.162,79.852 117.162,80.157 116.744,80.157 116.705,82.094 116.362,82.094 116.362,80.157 
	115.946,80.157 115.946,79.852 "/>
<path fill="#21B28A" d="M115.93,93.542c0,1.463-0.297,2.723-0.883,3.778c-0.589,1.053-1.337,1.581-2.24,1.581
	c-0.285,0-0.556-0.057-0.809-0.169c-0.252-0.111-0.567-0.32-0.952-0.631c-0.212-0.172-0.39-0.258-0.523-0.258
	c-0.118,0-0.24,0.086-0.368,0.261c-0.128,0.174-0.233,0.44-0.313,0.797h-0.238v-6.613h0.238c0.195,1.861,0.575,3.278,1.133,4.254
	c0.558,0.977,1.158,1.467,1.806,1.467c0.497,0,0.896-0.264,1.191-0.788c0.297-0.525,0.444-1.139,0.444-1.838
	c0-0.413-0.058-0.813-0.169-1.202c-0.117-0.386-0.289-0.754-0.523-1.104c-0.23-0.348-0.642-0.802-1.231-1.362
	c-0.825-0.783-1.417-1.453-1.776-2.003c-0.356-0.552-0.631-1.167-0.824-1.848c-0.191-0.68-0.288-1.428-0.288-2.246
	c0-1.394,0.264-2.582,0.794-3.563c0.526-0.98,1.191-1.472,1.996-1.472c0.292,0,0.577,0.068,0.853,0.203
	c0.209,0.104,0.461,0.294,0.762,0.57c0.299,0.278,0.511,0.418,0.631,0.418c0.114,0,0.204-0.069,0.272-0.207
	c0.064-0.137,0.128-0.465,0.188-0.984h0.201l0.067,5.854h-0.269c-0.132-1.472-0.449-2.654-0.952-3.553
	c-0.507-0.896-1.051-1.345-1.638-1.345c-0.455,0-0.813,0.237-1.077,0.708c-0.267,0.468-0.397,1.01-0.397,1.621
	c0,0.387,0.046,0.732,0.139,1.034c0.13,0.405,0.337,0.806,0.623,1.202c0.209,0.283,0.696,0.786,1.456,1.513
	c1.063,1.007,1.775,1.959,2.141,2.854C115.751,91.365,115.93,92.392,115.93,93.542"/>
<path fill="#21B28A" d="M113.75,64.835c0.713,0.77,0.593,2.041-0.263,2.837c-0.86,0.795-2.136,0.816-2.852,0.047
	c-0.713-0.769-0.596-2.04,0.265-2.838C111.76,64.084,113.035,64.065,113.75,64.835 M113.351,66.157
	c0.03-0.122,0.02-0.237-0.027-0.346c-0.049-0.108-0.154-0.25-0.318-0.43l-0.631-0.679l-0.043,0.037
	c0.062,0.066,0.101,0.122,0.108,0.16s0.005,0.073-0.008,0.103c-0.018,0.034-0.069,0.09-0.161,0.177l-1.106,1.027
	c-0.09,0.084-0.153,0.132-0.186,0.143c-0.033,0.012-0.067,0.015-0.106,0.003c-0.035-0.011-0.087-0.052-0.149-0.12l-0.044,0.038
	l0.702,0.757l0.041-0.038c-0.063-0.068-0.098-0.122-0.105-0.16c-0.009-0.039-0.006-0.071,0.008-0.104
	c0.014-0.033,0.067-0.09,0.16-0.177l0.477-0.44l0.09,0.095l-0.334,1.187l0.427,0.462l0.046-0.043
	c-0.035-0.042-0.052-0.09-0.055-0.145c0-0.034,0.017-0.111,0.046-0.226l0.251-0.881c0.105,0.064,0.209,0.097,0.308,0.101
	c0.152,0,0.29-0.059,0.416-0.175C113.259,66.392,113.323,66.283,113.351,66.157"/>
<polygon fill="#21B28A" points="113.428,77.88 4.835,77.88 12.626,69.34 13.312,70.135 7.343,76.822 26.265,76.822 110.729,76.822 
	89.323,55.765 89.32,55.753 89.296,55.74 65.593,32.423 55.92,22.91 26.349,54.87 25.589,54.38 55.73,21.549 "/>
<path fill="#21B28A" d="M112.896,65.455c0.109,0.114,0.156,0.229,0.143,0.338c-0.014,0.108-0.084,0.224-0.216,0.342
	c-0.087,0.082-0.173,0.134-0.256,0.158c-0.081,0.022-0.154,0.02-0.222-0.01c-0.065-0.03-0.146-0.097-0.24-0.197l-0.057-0.06
	l0.743-0.688L112.896,65.455z"/>
<path fill="#21B28A" d="M110.353,63.26l-1.682,1.701l-0.141-0.14c0.277-0.37,0.454-0.707,0.532-1.013
	c0.077-0.304,0.065-0.617-0.032-0.938c-0.097-0.322-0.259-0.594-0.484-0.813c-0.252-0.253-0.541-0.381-0.859-0.393
	c-0.317-0.008-0.574,0.085-0.77,0.283c-0.149,0.151-0.234,0.34-0.251,0.569c-0.032,0.335,0.088,0.932,0.356,1.8
	c0.218,0.708,0.347,1.211,0.387,1.514c0.038,0.302,0.016,0.586-0.07,0.858c-0.085,0.272-0.227,0.507-0.422,0.703
	c-0.37,0.374-0.836,0.554-1.396,0.538c-0.56-0.016-1.071-0.253-1.53-0.707c-0.145-0.142-0.27-0.288-0.374-0.436
	c-0.065-0.087-0.179-0.285-0.34-0.599c-0.164-0.313-0.277-0.5-0.34-0.563c-0.062-0.061-0.128-0.091-0.198-0.091
	c-0.074,0.004-0.175,0.053-0.305,0.151l-0.139-0.14l1.681-1.701l0.139,0.139c-0.289,0.42-0.468,0.771-0.535,1.057
	c-0.065,0.283-0.049,0.593,0.056,0.928c0.107,0.335,0.289,0.634,0.553,0.895c0.305,0.3,0.626,0.457,0.965,0.471
	c0.333,0.014,0.611-0.09,0.828-0.308c0.12-0.122,0.21-0.279,0.264-0.47c0.058-0.191,0.069-0.412,0.033-0.656
	c-0.024-0.168-0.131-0.579-0.321-1.237c-0.19-0.659-0.308-1.146-0.348-1.465c-0.041-0.32-0.021-0.611,0.055-0.875
	c0.075-0.262,0.216-0.499,0.415-0.701c0.354-0.357,0.795-0.528,1.322-0.516c0.528,0.012,1.004,0.229,1.429,0.646
	c0.265,0.26,0.479,0.602,0.649,1.022c0.077,0.196,0.146,0.32,0.202,0.377c0.063,0.061,0.134,0.094,0.21,0.097
	c0.078,0.002,0.185-0.041,0.32-0.128L110.353,63.26z"/>
<path fill="#21B28A" d="M108.418,80.979v4.729h-0.236c-0.145-1.095-0.302-1.88-0.474-2.359c-0.174-0.479-0.41-0.858-0.715-1.146
	c-0.169-0.154-0.463-0.233-0.887-0.233h-0.662v13.526c0,0.905,0.025,1.473,0.075,1.697c0.051,0.227,0.148,0.424,0.298,0.594
	c0.147,0.172,0.349,0.256,0.604,0.256h0.297v0.463h-4.708v-0.463h0.299c0.261,0,0.47-0.093,0.631-0.275
	c0.113-0.122,0.204-0.329,0.271-0.626c0.049-0.209,0.073-0.757,0.073-1.646V81.969h-0.662c-0.615,0-1.06,0.254-1.336,0.751
	c-0.39,0.698-0.637,1.694-0.741,2.987h-0.236v-4.729H108.418z"/>
<path fill="#21B28A" d="M106.199,59.367l-1.03,1.137l-0.153-0.149c0.206-0.31,0.326-0.544,0.358-0.703
	c0.036-0.157,0.016-0.321-0.054-0.492c-0.061-0.13-0.213-0.318-0.458-0.558l-1.346-1.331l-1.938,1.959l1.069,1.055
	c0.281,0.278,0.51,0.421,0.688,0.43c0.236,0.012,0.502-0.114,0.792-0.38l0.142,0.139l-1.703,1.724l-0.141-0.138
	c0.204-0.275,0.322-0.463,0.355-0.567c0.041-0.127,0.035-0.267-0.013-0.412c-0.053-0.147-0.181-0.321-0.388-0.524l-1.068-1.057
	l-1.607,1.629c-0.218,0.219-0.338,0.362-0.368,0.428c-0.026,0.068-0.029,0.139-0.008,0.215c0.022,0.076,0.101,0.182,0.237,0.316
	l0.837,0.828c0.28,0.278,0.504,0.458,0.669,0.545c0.163,0.087,0.359,0.131,0.591,0.134c0.297,0,0.675-0.073,1.132-0.219l0.152,0.15
	l-1.655,0.821l-3.834-3.786l0.139-0.143l0.177,0.178c0.119,0.117,0.258,0.198,0.419,0.247c0.117,0.039,0.231,0.032,0.335-0.016
	c0.105-0.053,0.276-0.196,0.517-0.439l3.177-3.215c0.316-0.32,0.477-0.549,0.487-0.685c0.008-0.188-0.09-0.384-0.297-0.587
	l-0.177-0.174l0.14-0.142L106.199,59.367z"/>
<polygon fill="#21B28A" points="101.028,72.137 101.256,72.668 87.688,73.01 87.573,72.896 90.197,71.146 90.765,71.032 
	91.905,69.663 92.02,69.399 91.905,67.917 91.337,66.244 89.739,64.381 89.739,64.153 91.223,64.153 91.451,64.002 92.02,63.508 
	92.591,63.508 "/>
<path fill="#21B28A" d="M100.209,53.675c0.176,0.326,0.249,0.677,0.219,1.059c-0.029,0.378-0.185,0.713-0.468,0.999
	c-0.301,0.305-0.666,0.47-1.088,0.497c-0.421,0.027-0.89-0.119-1.404-0.44l-0.372,2.443c-0.09,0.56-0.104,0.977-0.041,1.249
	c0.065,0.274,0.218,0.56,0.46,0.857l-0.139,0.141l-1.333-1.313l0.606-3.993c-0.127-0.114-0.229-0.212-0.305-0.286
	c-0.032-0.032-0.064-0.064-0.098-0.1c-0.035-0.039-0.071-0.076-0.106-0.117l0.231-0.234c0.047,0.043,0.085,0.084,0.116,0.12
	c0.034,0.036,0.061,0.063,0.082,0.084c0.471,0.463,0.923,0.71,1.366,0.74c0.44,0.03,0.816-0.115,1.132-0.433
	c0.305-0.31,0.457-0.659,0.457-1.042s-0.158-0.732-0.474-1.044c-0.055-0.052-0.116-0.106-0.19-0.163l0.291-0.294l0.003,0.003
	C99.683,52.927,100.033,53.352,100.209,53.675"/>
<path fill="#21B28A" d="M99.508,80.979v0.463c-0.382,0.095-0.642,0.22-0.772,0.369c-0.133,0.153-0.232,0.4-0.307,0.743
	c-0.073,0.344-0.111,0.931-0.111,1.763v14.585h-0.227l-6.082-14.542v11.103c0,1.01,0.118,1.695,0.359,2.05
	c0.239,0.354,0.514,0.53,0.82,0.53h0.215v0.463h-3.215v-0.463c0.498-0.008,0.841-0.206,1.035-0.6
	c0.194-0.386,0.292-1.047,0.292-1.98V83.126l-0.203-0.488c-0.19-0.479-0.358-0.794-0.504-0.943
	c-0.146-0.153-0.357-0.234-0.632-0.253v-0.463h3.211l4.437,10.803v-7.465c0-1.059-0.078-1.773-0.233-2.146
	c-0.213-0.504-0.571-0.746-1.074-0.729v-0.463H99.508z"/>
<path fill="#21B28A" d="M99.152,52.402l-0.291,0.294c-0.122-0.099-0.277-0.202-0.459-0.316l-2.03,2.054l-0.231,0.234l-1.426,1.444
	c-0.307,0.311-0.466,0.536-0.47,0.68c-0.014,0.199,0.072,0.389,0.261,0.575l0.194,0.19l-0.141,0.142l-2.136-2.108l0.141-0.142
	l0.187,0.185c0.209,0.207,0.429,0.288,0.652,0.242c0.126-0.023,0.33-0.176,0.607-0.459l3.178-3.216
	c0.305-0.31,0.462-0.539,0.468-0.681c0.011-0.201-0.078-0.394-0.267-0.582l-0.188-0.185l0.139-0.139L99.152,52.402z"/>
<path fill="#21B28A" d="M97.129,50.403l-0.143,0.142l-0.186-0.185c-0.194-0.193-0.429-0.261-0.695-0.201
	c-0.125,0.024-0.323,0.177-0.599,0.454l-1.985,2.008c-0.493,0.498-0.923,0.835-1.29,1.012c-0.37,0.174-0.797,0.218-1.281,0.128
	c-0.481-0.09-0.975-0.381-1.472-0.871c-0.541-0.536-0.86-1.036-0.955-1.502c-0.095-0.465-0.047-0.917,0.149-1.35
	c0.136-0.293,0.501-0.739,1.091-1.338l1.918-1.94c0.299-0.301,0.454-0.541,0.463-0.72c0.011-0.177-0.077-0.356-0.264-0.542
	l-0.186-0.182l0.139-0.141l2.136,2.111l-0.139,0.138l-0.188-0.185c-0.204-0.201-0.413-0.28-0.628-0.239
	c-0.147,0.03-0.356,0.18-0.631,0.457l-2.137,2.163c-0.19,0.193-0.389,0.429-0.601,0.712c-0.211,0.286-0.338,0.542-0.382,0.772
	c-0.043,0.231-0.023,0.479,0.061,0.74c0.087,0.263,0.256,0.52,0.511,0.77c0.324,0.321,0.686,0.539,1.081,0.65
	c0.396,0.112,0.75,0.104,1.063-0.024c0.312-0.128,0.727-0.455,1.25-0.982l1.982-2.008c0.305-0.307,0.46-0.536,0.468-0.68
	c0.012-0.201-0.075-0.395-0.267-0.583l-0.188-0.182l0.139-0.141L97.129,50.403z"/>
<path fill="#21B28A" d="M92.171,61.682l0.115,0.496l-0.344,0.342l-2.164,0.531l-1.141,0.228l-0.228,0.153l-0.115,0.228l-0.114,0.267
	l2.168,2.242l0.114,1.026l0.225,0.343l0.115,1.635l-0.115,0.382l-0.796,0.605l-1.025,0.267l-2.054,2.508l-0.115,0.382l-0.34,0.34
	l-3.651,0.418l-1.102,0.495l-0.228-0.152l-1.937-2.243l0.113-0.493l0.683-0.762v-0.759l-0.491-0.873l1.632-0.343l0.875-0.647
	l0.227-0.112l0.343-0.761c0.115-2.509,3.08-4.903,2.509-7.411l-0.146-0.547l-0.193-0.707l-0.344-0.61l-0.571-0.496l-0.568-0.111
	l-1.141-0.876l-0.762-0.152l-1.14,0.152l-0.343,0.114l-0.228-0.114l-0.454-0.912l-0.115-0.228l-0.911-0.76l0.115-0.724l0.116-0.082
	l0.795-0.563l0.228-0.152l0.227-0.115l0.342-0.495l0.648-0.115l1.937-0.263l0.571-0.115l0.228-0.152l2.281,0.912l0.683,0.495
	l0.457,0.759l0.115,0.229l0.456,0.38l1.684,0.974l0.027,0.024l0.226,1.396l0.687,0.492l1.367,0.991l0.115,0.267l0.339,2.507
	L92.171,61.682z"/>
<path fill="#21B28A" d="M91.154,44.292l-1.682,1.701l-0.142-0.139c0.277-0.367,0.454-0.705,0.533-1.012
	c0.076-0.305,0.066-0.617-0.032-0.938c-0.099-0.321-0.259-0.593-0.485-0.813c-0.252-0.253-0.541-0.381-0.859-0.393
	c-0.318-0.008-0.576,0.088-0.771,0.283c-0.147,0.153-0.231,0.344-0.251,0.57c-0.029,0.334,0.09,0.933,0.356,1.801
	c0.221,0.707,0.348,1.21,0.39,1.512c0.038,0.303,0.016,0.588-0.071,0.86c-0.087,0.271-0.226,0.506-0.422,0.702
	c-0.369,0.375-0.835,0.555-1.398,0.539c-0.561-0.017-1.069-0.253-1.528-0.707c-0.145-0.142-0.27-0.29-0.377-0.436
	c-0.061-0.087-0.176-0.286-0.339-0.599c-0.16-0.313-0.274-0.501-0.338-0.563c-0.063-0.06-0.127-0.09-0.2-0.087
	c-0.071,0-0.171,0.049-0.303,0.146l-0.142-0.139l1.682-1.7l0.143,0.139c-0.289,0.419-0.469,0.77-0.536,1.056
	c-0.069,0.283-0.05,0.593,0.057,0.928c0.103,0.334,0.288,0.634,0.553,0.895c0.303,0.302,0.624,0.457,0.96,0.471
	c0.337,0.014,0.613-0.087,0.833-0.308c0.119-0.123,0.206-0.28,0.263-0.471c0.058-0.19,0.066-0.408,0.033-0.655
	c-0.024-0.168-0.131-0.58-0.321-1.238c-0.194-0.656-0.308-1.146-0.349-1.464c-0.04-0.321-0.022-0.612,0.053-0.876
	c0.076-0.261,0.214-0.495,0.419-0.702c0.351-0.356,0.79-0.528,1.322-0.514c0.526,0.011,1.003,0.229,1.424,0.645
	c0.265,0.26,0.482,0.604,0.653,1.022c0.076,0.196,0.145,0.321,0.2,0.375c0.064,0.063,0.135,0.098,0.211,0.098
	c0.08,0.003,0.185-0.041,0.322-0.127L91.154,44.292z"/>
<path fill="#21B28A" d="M89.857,98.042v0.463h-4.359v-0.463h0.18c0.351,0,0.597-0.096,0.737-0.286
	c0.098-0.14,0.146-0.341,0.146-0.601c0-0.155-0.013-0.316-0.04-0.482c-0.009-0.079-0.076-0.405-0.198-0.979l-0.49-2.182h-3.161
	l-0.396,1.706c-0.125,0.574-0.185,1.044-0.185,1.419c0,0.494,0.101,0.858,0.305,1.092c0.119,0.139,0.414,0.244,0.885,0.313v0.463
	h-2.995v-0.463c0.321-0.096,0.588-0.356,0.797-0.787c0.206-0.429,0.462-1.313,0.771-2.658l3.223-13.982h0.125l3.254,14.372
	c0.307,1.367,0.563,2.23,0.762,2.587C89.369,97.844,89.582,97.998,89.857,98.042 M85.618,92.552l-1.344-5.994l-1.383,5.994H85.618z"
	/>
<polygon fill="#21B28A" points="89.32,55.753 89.323,55.765 89.296,55.74 "/>
<path fill="#21B28A" d="M85.09,38.302l-2.375,5.819c-0.188,0.468-0.271,0.808-0.256,1.017c0.017,0.21,0.121,0.422,0.312,0.634
	l-0.14,0.142l-1.976-1.951l0.14-0.141c0.206,0.185,0.372,0.286,0.497,0.299c0.126,0.014,0.226-0.019,0.305-0.101
	c0.106-0.106,0.224-0.321,0.352-0.648l0.416-1.017l-1.931-1.907l-1.118,0.449c-0.275,0.108-0.458,0.212-0.551,0.307
	c-0.076,0.073-0.106,0.177-0.09,0.305c0.017,0.127,0.138,0.317,0.36,0.573l-0.14,0.139l-1.572-1.553l0.139-0.139
	c0.245,0.168,0.425,0.253,0.544,0.253c0.242,0.005,0.617-0.099,1.127-0.311l5.8-2.326L85.09,38.302z M82.524,41.961l1.161-2.827
	l-2.854,1.153L82.524,41.961z"/>
<path fill="#21B28A" d="M84.57,59.63v1.254l-0.113,0.381l-0.458,1.482l-1.594,2.395l-0.229,1.86l-0.571,0.914l-2.051,0.34h-0.686
	l-0.229,0.381l-0.11,1.14l-0.687,0.839l-0.458,0.264l-0.797,0.152l-0.571,0.114h-0.567l-0.912-0.759l-0.457-0.114l-0.457-0.496
	l-0.228-0.378h-2.281l-1.672-0.762l-0.798-0.873l-0.152-0.495l-0.419-0.606l-0.722-1.406l-0.114-2.509l1.521-2.244l0.19-1.14
	l-0.19-0.378l0.76-0.876l1.066-2.242l3.61-1.14l0.343,0.114l0.569,1.026l0.114,0.229l0.456,0.417h0.799l0.112-0.265l0.569-0.533
	l1.029-0.114l0.228,0.114l0.339,0.381l0.115,0.759v0.267l0.457,0.493l0.229,0.152l3.191,0.114l0.57,0.496l0.115,0.229l0.455,0.531
	L84.57,59.63z M79.135,61.532l0.115-1.635c-1.369-1.749-2.737-0.114-4.22-0.114l-1.824-0.609l-0.799,0.114l-0.229,0.115l-1.025,1.14
	l-0.229,1.369l0.115,0.267l0.456,0.759l0.114,0.989l-0.342,1.748l0.113,0.267l0.455,0.986l0.571,0.61h0.686l1.709-0.496l1.028-0.492
	l0.683,0.378l1.712-0.226l0.91-1.406l-0.115-0.762v-0.874l-0.113-0.228l-0.568-0.76v-0.267l0.114-0.228l0.227-0.152L79.135,61.532z"
	/>
<path fill="#21B28A" d="M81.575,35.04l-1.031,1.137l-0.151-0.15c0.207-0.31,0.326-0.544,0.358-0.702
	c0.035-0.157,0.017-0.32-0.055-0.49c-0.06-0.133-0.212-0.318-0.457-0.56l-1.346-1.331l-1.938,1.959l1.069,1.055
	c0.28,0.278,0.508,0.422,0.688,0.43c0.236,0.014,0.499-0.114,0.791-0.381l0.142,0.139l-1.703,1.725l-0.141-0.139
	c0.203-0.275,0.322-0.462,0.356-0.566c0.039-0.128,0.034-0.264-0.018-0.411c-0.049-0.147-0.18-0.324-0.383-0.528l-1.069-1.056
	l-1.608,1.629c-0.218,0.221-0.341,0.362-0.367,0.43c-0.026,0.065-0.03,0.136-0.009,0.212c0.02,0.076,0.102,0.182,0.237,0.316
	l0.837,0.83c0.281,0.277,0.504,0.459,0.668,0.546c0.166,0.085,0.362,0.131,0.593,0.131c0.296,0,0.675-0.074,1.132-0.218l0.152,0.15
	l-1.657,0.821l-3.833-3.784l0.14-0.141l0.177,0.174c0.119,0.117,0.259,0.198,0.418,0.248c0.118,0.041,0.229,0.033,0.335-0.017
	c0.106-0.052,0.277-0.195,0.517-0.438l3.176-3.215c0.315-0.318,0.478-0.546,0.489-0.686c0.008-0.188-0.089-0.381-0.296-0.585
	L77.611,31.4l0.139-0.139L81.575,35.04z"/>
<polygon fill="#21B28A" points="80.122,51.23 80.236,51.839 78.3,53.475 78.3,53.093 77.957,52.332 77.274,51.497 76.931,50.585 
	76.017,50.242 74.649,50.242 73.623,50.242 70.469,50.356 69.063,50.242 67.504,51.991 67.352,51.839 67.352,50.738 67.922,48.077 
	67.733,47.734 67.619,46.48 67.81,45.984 67.922,45.34 67.922,43.057 68.645,40.815 68.378,40.435 68.302,40.209 68.302,39.714 "/>
<path fill="#21B28A" d="M79.695,92.319l-0.34,6.186h-7.993v-0.463h0.302c0.262,0,0.474-0.093,0.635-0.275
	c0.117-0.122,0.203-0.329,0.266-0.626c0.049-0.209,0.074-0.757,0.074-1.646V83.988c0-0.907-0.025-1.47-0.074-1.698
	c-0.048-0.227-0.146-0.425-0.296-0.593c-0.149-0.172-0.352-0.256-0.604-0.256h-0.302v-0.463h4.796v0.463H75.77
	c-0.262,0-0.471,0.092-0.629,0.274c-0.113,0.122-0.203,0.332-0.27,0.626c-0.049,0.209-0.072,0.759-0.072,1.646v11.149
	c0,0.896,0.026,1.465,0.078,1.71c0.056,0.244,0.159,0.43,0.313,0.55c0.108,0.076,0.375,0.114,0.8,0.114h0.745
	c0.476,0,0.873-0.164,1.191-0.493c0.315-0.326,0.59-0.847,0.821-1.557c0.232-0.71,0.452-1.757,0.659-3.143H79.695z"/>
<polygon fill="#21B28A" points="79.211,70.541 77.157,73.655 77.046,74.188 75.106,74.568 74.537,74.683 73.206,75.556 
	72.293,75.556 69.442,74.188 65.907,72.324 65.793,72.062 65.907,69.93 66.022,69.436 65.907,69.172 66.213,67.804 66.365,67.537 
	67.048,67.423 68.378,69.286 68.873,69.816 72.064,70.426 75.334,72.062 77.544,71.453 78.529,71.185 "/>
<polygon fill="#21B28A" points="78.529,60.732 78.529,60.999 77.274,62.367 77.274,63.012 78.071,64.002 78.3,64.269 78.3,64.763 
	77.614,65.749 76.703,65.901 75.905,65.749 75.449,65.409 75.221,65.257 74.992,65.409 74.31,66.396 72.94,66.396 72.598,66.017 
	72.483,65.028 72.368,64.496 72.826,63.508 72.94,63.241 72.141,62.139 72.028,60.999 72.483,60.276 72.94,59.745 75.221,60.732 
	75.449,60.885 75.905,60.885 76.132,60.732 76.931,60.012 77.499,60.012 "/>
<polygon fill="#21B28A" points="76.703,51.61 76.588,55.106 76.36,55.259 75.905,55.259 75.221,54.233 75.106,54.004 72.598,53.588 
	69.898,54.614 68.873,55.487 68.645,56.097 68.149,57.503 67.922,56.513 67.504,56.513 67.31,56.097 66.667,54.729 66.59,54.461 
	66.59,53.852 67.504,52.979 69.633,51.077 69.898,51.001 70.811,51.077 73.168,51.001 75.791,51.001 "/>
<path fill="#21B28A" d="M75.587,29.351c0.175,0.324,0.248,0.677,0.218,1.056c-0.03,0.381-0.185,0.713-0.469,0.999
	c-0.3,0.308-0.664,0.473-1.087,0.501c-0.425,0.027-0.89-0.123-1.401-0.444l-0.376,2.445c-0.09,0.559-0.104,0.974-0.037,1.25
	c0.059,0.274,0.213,0.56,0.457,0.856l-0.139,0.142l-1.334-1.317l0.607-3.994c-0.128-0.114-0.228-0.209-0.305-0.285
	c-0.032-0.031-0.065-0.065-0.098-0.101c-0.036-0.038-0.071-0.076-0.106-0.117l0.231-0.234c0.046,0.046,0.083,0.087,0.117,0.12
	c0.032,0.035,0.06,0.063,0.081,0.084c0.469,0.462,0.925,0.71,1.365,0.74c0.438,0.03,0.817-0.115,1.13-0.433
	c0.307-0.31,0.46-0.655,0.46-1.039c0-0.383-0.158-0.731-0.475-1.044c-0.051-0.052-0.116-0.106-0.19-0.166l0.292-0.293l0.003,0.002
	C75.06,28.6,75.41,29.025,75.587,29.351"/>
<path fill="#21B28A" d="M74.529,28.076l-0.292,0.293c-0.124-0.095-0.276-0.201-0.459-0.316l-2.029,2.055l-0.231,0.234l-1.426,1.444
	c-0.308,0.31-0.465,0.539-0.47,0.68c-0.015,0.199,0.073,0.389,0.26,0.573l0.193,0.194l-0.139,0.142l-2.135-2.111l0.138-0.142
	l0.188,0.186c0.21,0.209,0.427,0.288,0.653,0.241c0.125-0.023,0.326-0.176,0.605-0.459l3.176-3.216
	c0.308-0.309,0.465-0.535,0.471-0.68c0.011-0.201-0.079-0.394-0.267-0.58l-0.188-0.185l0.138-0.141L74.529,28.076z"/>
<path fill="#21B28A" d="M72.342,25.918l-1.11,1.216l-0.139-0.136c0.177-0.231,0.283-0.416,0.324-0.549
	c0.065-0.215,0.067-0.419,0.011-0.609c-0.061-0.19-0.19-0.387-0.395-0.588l-0.693-0.686l-3.757,3.8
	c-0.297,0.302-0.449,0.523-0.457,0.665c-0.004,0.196,0.093,0.392,0.291,0.585l0.173,0.174l-0.138,0.142l-2.135-2.109l0.138-0.141
	l0.18,0.177c0.212,0.209,0.428,0.296,0.639,0.26c0.135-0.024,0.332-0.171,0.604-0.446l3.759-3.803l-0.6-0.593
	c-0.233-0.232-0.416-0.376-0.55-0.438c-0.171-0.082-0.37-0.101-0.59-0.057c-0.224,0.044-0.452,0.169-0.69,0.375l-0.14-0.139
	l1.203-1.124L72.342,25.918z"/>
<path fill="#21B28A" d="M69.858,82.317c0.565,0.893,0.848,2.01,0.848,3.348c0,1.136-0.182,2.104-0.546,2.911
	c-0.364,0.809-0.865,1.358-1.504,1.649c-0.431,0.206-1.16,0.31-2.186,0.31v4.895c0,0.953,0.029,1.554,0.094,1.799
	c0.06,0.247,0.168,0.446,0.322,0.593c0.158,0.146,0.443,0.221,0.86,0.221v0.463h-4.625v-0.463c0.425,0,0.713-0.076,0.865-0.229
	c0.149-0.149,0.256-0.348,0.317-0.59c0.06-0.243,0.094-0.84,0.094-1.793V84.053c0-0.952-0.034-1.554-0.094-1.799
	c-0.062-0.247-0.168-0.445-0.323-0.593c-0.152-0.146-0.441-0.22-0.859-0.22v-0.463h3.941C68.361,80.979,69.295,81.425,69.858,82.317
	 M68.511,85.732c0-1.313-0.146-2.276-0.442-2.882c-0.294-0.611-0.735-0.915-1.322-0.915h-0.275v7.64
	c0.147,0.02,0.262,0.028,0.335,0.028c0.546,0,0.969-0.317,1.263-0.948C68.364,88.027,68.511,87.051,68.511,85.732"/>
<polygon fill="#21B28A" points="67.695,59.669 67.695,60.314 66.44,62.178 66.213,62.672 65.869,64.419 66.099,65.333 
	66.327,65.825 66.556,66.092 66.556,66.435 65.869,66.701 65.413,69.095 64.959,69.587 64.501,69.324 62.561,69.436 60.739,68.677 
	59.827,68.677 59.256,68.677 58.951,65.559 58.611,64.952 58.497,64.686 58.799,63.165 59.256,62.823 59.371,62.178 61.307,59.554 
	62.79,58.186 66.667,58.034 66.781,57.919 66.44,57.313 66.213,56.398 66.556,56.284 66.667,56.398 66.781,57.313 67.352,58.034 "/>
<path fill="#21B28A" d="M67.161,36.596l0.458,4.752l-0.458,0.759v0.875l-0.454,3.115l-0.914,8.173l-0.342,2.738h-0.912h-0.458
	l-1.253,0.494l-0.226,0.149l0.34-1.746c1.235-4.976-1.431-10.074-0.286-15.072c0.126-0.541,0.292-1.08,0.516-1.616l-0.229-0.645
	l-0.114-0.229l0.114-3.003l-1.595-2.128l-0.228-0.647l-1.028-1.747l-2.22-1.879l-0.743-0.629l0.03-0.373l3.162,0.258l1.711,1.747
	l0.683,0.267l2.737,2.356l0.571,1.254l0.114,0.761l0.453,1.254L67.161,36.596z"/>
<polygon fill="#21B28A" points="65.413,72.781 65.869,73.277 65.756,73.391 62.337,73.391 62.306,73.282 61.574,70.541 
	64.501,70.388 64.729,70.502 64.845,72.4 "/>
<path fill="#21B28A" d="M62.337,51.23l0.224,0.38l-0.453,5.512l-0.114,0.38l-2.623,3.763l-0.686,0.987l-0.111,0.759l-0.458,0.61
	l-0.229,2.127l0.686,0.914v2.356l0.111,0.229l0.229,0.263l1.14,0.267l0.571,0.115l0.343,0.381l-0.114,2.241l0.912,0.911
	l-7.144,0.114l-0.115-0.53l0.115-0.873l-0.229-0.381v-2.245v-0.987l0.341-3.761v-0.494v-3.003l-0.341-0.647l-0.228-0.873
	l0.458-2.242l-0.229-3.27l0.229-2.127l-0.229-1.254l0.455-2.775l-0.455-0.724l0.646-4.789l-1.102-2.241l-0.115-0.267l1.217-4.258
	l0.952-4.75l1.025-1.368l0.455-0.267l1.559,1.635l0.343,0.531l0.343,0.343l0.228,1.14l1.141,2.737l0.113,0.874
	c0.672,1.379,1.184,2.677,0.917,4.032c-0.049,0.25-0.124,0.503-0.233,0.759l-0.114,1.369l-0.343,1.899l0.343,0.609L62.337,51.23z"/>
<path fill="#21B28A" d="M59.074,80.979v0.463c-0.384,0.095-0.642,0.22-0.773,0.369c-0.13,0.153-0.234,0.4-0.307,0.743
	c-0.073,0.344-0.112,0.931-0.112,1.763v14.585h-0.225l-6.083-14.542v11.103c0,1.011,0.12,1.695,0.359,2.05
	c0.239,0.354,0.514,0.53,0.822,0.53h0.214v0.463h-3.215v-0.463c0.498-0.008,0.841-0.206,1.037-0.6
	c0.193-0.386,0.291-1.047,0.291-1.98V83.126l-0.204-0.488c-0.19-0.479-0.357-0.794-0.503-0.943
	c-0.147-0.153-0.356-0.234-0.631-0.253v-0.463h3.21l4.438,10.803v-7.465c0-1.059-0.08-1.773-0.234-2.146
	c-0.212-0.504-0.571-0.746-1.075-0.729v-0.463H59.074z"/>
<polygon fill="#21B28A" points="57.159,27.939 57.129,28.312 56.1,29.3 55.075,29.719 54.846,29.83 54.506,30.554 54.506,32.075 
	54.164,32.833 53.935,35.076 53.706,35.57 53.591,36.218 53.364,37.472 52.795,40.094 52.795,40.587 53.479,41.841 53.82,43.972 
	52.909,53.017 53.138,54.766 53.364,55.145 53.364,59.745 53.364,60.504 53.591,60.771 53.706,64.8 53.364,64.647 52.909,63.888 
	51.832,63.08 50.629,62.178 50.401,61.037 50.058,60.392 49.943,59.783 49.571,57.977 48.956,54.992 48.956,53.891 49.032,53.398 
	48.461,52.258 48.385,49.976 48.004,48.379 47.702,47.125 46.767,39.363 46.75,39.218 46.676,38.955 46.676,38.345 47.016,37.85 
	47.13,36.711 48.157,34.202 50.286,31.198 51.654,30.059 52.566,29.3 53.591,28.464 55.646,27.817 "/>
<polygon fill="#21B28A" points="53.706,71.756 53.706,73.54 51.083,73.54 51.16,72.324 50.172,71.87 50.629,68.753 50.741,68.409 
	51.198,67.917 53.138,66.777 53.706,66.892 53.706,68.146 "/>
<polygon fill="#21B28A" points="51.426,63.622 53.138,65.638 53.023,65.901 52.795,66.131 52.224,66.244 51.198,66.777 
	50.515,67.385 49.261,68.523 48.347,68.753 47.664,69.172 46.75,70.12 46.524,70.616 44.016,70.88 42.305,70.88 40.708,69.663 
	40.479,69.399 40.708,68.409 40.822,68.032 41.165,67.651 42.19,67.499 42.419,67.385 43.216,67.385 44.698,67.27 45.27,66.892 
	45.839,66.396 48.918,65.901 49.487,65.638 50.058,64.989 49.601,64.496 48.347,64.269 45.839,64.381 44.016,64.647 41.733,65.521 
	40.479,65.257 40.403,64.989 40.822,61.682 41.504,61.532 42.533,60.732 43.673,60.809 44.66,60.961 "/>
<polygon fill="#21B28A" points="49.601,72.818 50.172,73.426 42.229,73.426 40.937,72.668 37.887,70.601 37.743,70.502 
	37.628,70.12 39.226,69.172 39.454,69.02 39.796,69.02 39.856,69.48 39.91,69.893 40.25,70.616 40.365,70.88 41.394,71.641 
	42.076,71.641 42.759,72.023 45.384,72.286 46.524,72.023 46.75,71.87 46.978,71.756 48.121,70.12 48.347,70.007 49.032,69.893 
	49.601,70.12 48.918,72.781 49.032,73.01 "/>
<path fill="#21B28A" d="M49.422,98.042v0.463h-4.358v-0.463h0.179c0.351,0,0.596-0.096,0.737-0.286
	c0.098-0.14,0.146-0.341,0.146-0.601c0-0.155-0.013-0.316-0.041-0.482c-0.008-0.079-0.076-0.405-0.198-0.979l-0.49-2.182h-3.161
	l-0.395,1.706c-0.125,0.574-0.185,1.044-0.185,1.419c0,0.494,0.101,0.858,0.305,1.092c0.12,0.139,0.413,0.244,0.884,0.313v0.463
	h-2.996v-0.463c0.321-0.096,0.588-0.356,0.797-0.787c0.207-0.429,0.463-1.313,0.771-2.658l3.224-13.982h0.125l3.253,14.372
	c0.31,1.367,0.564,2.23,0.765,2.587C48.935,97.844,49.147,97.998,49.422,98.042 M45.183,92.552l-1.344-5.994l-1.382,5.994H45.183z"
	/>
<path fill="#21B28A" d="M48.918,58.11l0.229,3.535l-1.368-0.646l-0.801-0.114l-2.217-0.436l-2.228-0.438h-0.229l-0.229,0.225
	l-0.95-0.038c-0.418-2.356-0.647-4.484,0.95-6.839l0.797-0.495l0.229-0.114l0.342-0.419l0.114-0.226l-0.114-0.38l-0.457-0.495
	l-1.708-0.153l-0.876,0.914l-1.064,0.606l-0.912,0.762l-0.418,0.115l-1.293,1.139l-0.987,0.76l-1.026,0.114l-0.571,0.495
	l-1.521,0.645l-0.759,0.609l-0.112,0.087l-0.726,0.557l-1.064-1.558l6.766-6.575l6.728-7.525l2.395-2.775h0.229l0.342,4.524
	l-0.457,3.381l1.14,1.635l0.115,1.864l0.114,1.746l0.343,0.495l-0.114,1.75L48.918,58.11z"/>
<path fill="#21B28A" d="M46.878,24.042l1.575,1.406c-0.106,0.432-0.251,0.827-0.433,1.178c-0.182,0.35-0.43,0.702-0.742,1.053
	c-0.897,1.003-1.901,1.48-3.009,1.426c-0.835-0.041-1.568-0.343-2.198-0.906c-0.457-0.411-0.797-0.912-1.021-1.504
	c-0.266-0.708-0.33-1.41-0.19-2.103c0.117-0.58,0.408-1.13,0.871-1.649c0.171-0.19,0.34-0.348,0.509-0.476
	c0.168-0.125,0.432-0.286,0.792-0.474c0.182-0.095,0.297-0.168,0.337-0.217c0.043-0.046,0.06-0.109,0.046-0.182
	c-0.017-0.077-0.085-0.177-0.21-0.302l0.131-0.147l1.76,1.349l-0.131,0.147c-0.533-0.231-0.995-0.333-1.396-0.305
	c-0.574,0.038-1.077,0.299-1.51,0.784c-0.587,0.658-0.772,1.393-0.558,2.203c0.185,0.681,0.582,1.295,1.192,1.839
	c0.495,0.441,1.031,0.748,1.613,0.92c0.579,0.174,1.102,0.19,1.569,0.049c0.468-0.142,0.849-0.378,1.14-0.705
	c0.172-0.193,0.316-0.399,0.428-0.62c0.111-0.223,0.196-0.457,0.25-0.708l-1.477-1.319c-0.264-0.237-0.458-0.373-0.574-0.408
	c-0.119-0.032-0.237-0.027-0.354,0.019c-0.119,0.046-0.272,0.174-0.462,0.386l-0.147-0.133l1.815-2.029l0.147,0.133l-0.09,0.098
	c-0.182,0.207-0.242,0.408-0.174,0.607C46.426,23.589,46.592,23.785,46.878,24.042"/>
<path fill="#21B28A" d="M43.681,31.653l-0.125,0.142l-7.263-0.305l3.21,2.865c0.315,0.284,0.544,0.425,0.686,0.425
	c0.193-0.005,0.383-0.109,0.566-0.315l0.168-0.188l0.147,0.131l-1.648,1.847l-0.147-0.133l0.163-0.182
	c0.205-0.229,0.281-0.446,0.234-0.659c-0.03-0.128-0.191-0.321-0.477-0.58l-3.632-3.242c-0.31-0.005-0.53,0.005-0.655,0.032
	c-0.128,0.03-0.283,0.096-0.465,0.204c-0.09,0.055-0.201,0.158-0.337,0.308l-0.147-0.131l1.263-1.412l6.741,0.278l-2.99-2.671
	c-0.318-0.283-0.546-0.422-0.69-0.419c-0.19,0.003-0.381,0.106-0.566,0.316l-0.166,0.182l-0.147-0.131l1.649-1.847l0.147,0.133
	l-0.168,0.188c-0.199,0.223-0.275,0.44-0.229,0.653c0.03,0.13,0.191,0.323,0.479,0.58L43.681,31.653z"/>
<path fill="#21B28A" d="M42.19,51.991v0.267l-0.648,0.53l-0.834,0.835c-0.874,2.016-1.369,4.144-0.988,6.16
	c0.683,2.395-0.838,4.485-1.978,6.766l-0.874,0.988l-0.266,0.114l-1.445,0.152l-0.568-0.152l-0.749-0.522l-0.506-0.352l-1.143-0.114
	l-1.822-1.635l-0.229-0.114l-0.571-0.381l1.711-1.746l0.228-0.496l-0.228-3.117v-0.531l0.799-0.876l1.368-0.758l0.683-0.115
	l0.305-0.381l0.835-0.115l0.305-0.263l0.568-0.115l0.838-0.762l0.305-0.114l3-2.127l0.571-0.496l0.759-0.53H42.19z M38.695,56.513
	v-0.378L38.2,55.64h-0.19l-1.521,1.863l-0.645,1.14l-0.115,0.759l-1.292,1.749l-0.419,0.606l-0.458,0.533l-0.264,0.874l-1.254,1.368
	v0.762l0.378,0.343l0.876,0.415h0.721l0.873-1.024l0.115-0.381l-0.115-0.607l0.115-0.647l0.342-0.759l1.063-1.597l0.762-1.368
	L38.695,56.513z"/>
<polygon fill="#21B28A" points="40.593,73.391 40.25,73.77 34.513,73.73 34.665,73.124 34.779,72.781 34.437,71.032 32.992,68.562 
	32.23,67.612 32.042,67.499 32.726,67.385 33.637,67.423 33.713,67.651 35.12,69.777 35.462,70.273 37.174,71.032 37.514,71.146 
	40.024,73.277 40.365,73.391 "/>
<polygon fill="#21B28A" points="40.063,66.549 40.177,66.927 40.063,67.309 39.377,68.184 38.581,68.296 38.352,68.448 
	37.44,69.286 36.755,69.93 35.272,68.943 35.386,68.677 36.526,68.562 38.238,67.688 38.806,67.194 39.492,66.815 39.834,66.435 "/>
<path fill="#21B28A" d="M39.486,98.042v0.463h-4.709v-0.463h0.294c0.266,0,0.481-0.093,0.64-0.275
	c0.111-0.122,0.201-0.329,0.269-0.626c0.049-0.209,0.073-0.757,0.073-1.646V82.513l-2.173,10.115l-0.49-0.106l2.446-11.543h3.651
	v0.463h-0.294c-0.266,0-0.481,0.092-0.639,0.277c-0.112,0.122-0.202,0.329-0.267,0.62c-0.051,0.212-0.076,0.762-0.076,1.649v11.507
	c0,0.905,0.025,1.473,0.076,1.697c0.047,0.227,0.147,0.424,0.299,0.594c0.153,0.172,0.354,0.256,0.606,0.256H39.486z"/>
<path fill="#21B28A" d="M39.103,36.612l-2,2.239l-0.15-0.133l0.167-0.185c0.192-0.218,0.271-0.43,0.233-0.64
	c-0.024-0.133-0.193-0.34-0.503-0.617l-3.374-3.012c-0.261-0.234-0.449-0.373-0.563-0.414c-0.088-0.03-0.188-0.027-0.308,0.014
	c-0.161,0.057-0.297,0.149-0.409,0.272l-0.166,0.188l-0.147-0.133l2-2.239l0.146,0.13l-0.168,0.19
	c-0.191,0.212-0.267,0.425-0.229,0.631c0.025,0.139,0.193,0.346,0.503,0.623l3.371,3.009c0.261,0.236,0.452,0.373,0.563,0.413
	c0.086,0.033,0.19,0.027,0.31-0.013c0.161-0.055,0.294-0.145,0.406-0.27l0.166-0.188L39.103,36.612z"/>
<path fill="#21B28A" d="M31.814,36.074l2.81,5.772l-0.144,0.161l-6.214-2.062c-0.321-0.106-0.525-0.164-0.615-0.169
	c-0.136-0.005-0.27,0.017-0.397,0.071c-0.128,0.054-0.27,0.155-0.425,0.302l-0.146-0.134l1.906-2.136l0.148,0.131
	c-0.191,0.261-0.289,0.454-0.293,0.58c-0.006,0.125,0.038,0.228,0.13,0.309c0.128,0.115,0.381,0.234,0.756,0.359l4.239,1.407
	l-1.912-3.932c-0.191-0.386-0.344-0.631-0.46-0.734c-0.074-0.065-0.177-0.092-0.313-0.079c-0.133,0.014-0.293,0.095-0.479,0.248
	c-0.013,0.011-0.038,0.03-0.07,0.055l-0.147-0.131l1.428-1.599l0.147,0.13c-0.131,0.215-0.199,0.408-0.199,0.577
	C31.567,35.448,31.651,35.739,31.814,36.074"/>
<path fill="#21B28A" d="M33.879,92.628l-1.266,5.877h-0.16L28.947,82.63v12.338c0,0.867,0.011,1.401,0.033,1.602
	c0.06,0.433,0.183,0.786,0.375,1.061c0.191,0.274,0.493,0.412,0.904,0.412v0.463h-3.096v-0.463h0.096
	c0.201,0.008,0.389-0.056,0.563-0.188c0.173-0.136,0.305-0.315,0.394-0.541c0.09-0.226,0.16-0.544,0.209-0.952
	c0.008-0.096,0.014-0.54,0.014-1.327V83.988c0-0.907-0.024-1.47-0.074-1.695c-0.049-0.227-0.152-0.422-0.301-0.595
	c-0.153-0.171-0.356-0.257-0.612-0.257h-0.289v-0.463h3.692l2.535,11.543L33.879,92.628z"/>
<polygon fill="#21B28A" points="33.637,71.527 33.751,71.756 33.182,75.29 32.955,75.518 32.726,75.785 32.154,76.278 
	30.789,76.278 30.446,76.544 27.709,76.278 26.569,76.544 26.265,76.772 24.858,76.544 24.175,76.659 24.175,74.416 24.629,74.416 
	24.629,75.938 25.769,74.53 27.595,73.277 28.052,73.162 29.306,72.137 29.989,71.527 30.332,71.374 30.824,70.654 31.853,70.918 
	32.192,70.807 32.307,70.541 31.853,69.93 31.509,69.058 31.86,68.677 32.726,69.476 33.373,70.769 33.145,72.286 "/>
<polygon fill="#21B28A" points="31.86,68.677 31.509,69.058 31.015,68.753 30.37,68.523 30.255,70.044 30.103,69.777 27.48,71.146 
	26.684,71.795 25.541,72.629 24.629,74.416 24.175,74.416 24.175,69.777 25.541,66.777 25.693,66.396 26.569,65.521 27.404,65.257 
	28.963,65.409 30.56,66.511 31.129,67.765 31.7,67.537 31.243,68.107 "/>
<path fill="#21B28A" d="M31.681,44.921l-1.999,2.238l-0.15-0.13l0.169-0.186c0.193-0.217,0.269-0.429,0.233-0.639
	c-0.027-0.136-0.195-0.343-0.506-0.621l-3.371-3.009c-0.264-0.234-0.451-0.373-0.566-0.414c-0.087-0.032-0.188-0.027-0.304,0.011
	c-0.163,0.06-0.299,0.149-0.411,0.274l-0.166,0.185l-0.147-0.13l2-2.242l0.146,0.133l-0.166,0.188
	c-0.19,0.215-0.266,0.424-0.231,0.634c0.025,0.136,0.193,0.343,0.504,0.621l3.37,3.012c0.264,0.234,0.452,0.372,0.566,0.414
	c0.085,0.032,0.188,0.027,0.308-0.014c0.161-0.058,0.294-0.147,0.406-0.27l0.168-0.188L31.681,44.921z"/>
<polygon fill="#21B28A" points="28.43,57.046 28.963,58.262 28.697,60.542 28.239,61.189 27.709,61.682 26.833,61.721 
	25.731,61.266 25.315,60.809 24.175,60.199 23.565,59.973 22.235,59.098 22.159,59.402 21.362,58.948 21.21,58.831 20.943,58.872 
	20.677,58.986 20.981,59.859 21.172,59.935 21.778,59.935 22.426,60.199 23.756,61.38 25.277,61.872 25.808,62.139 26.302,62.291 
	26.531,62.253 26.684,62.139 26.947,62.33 26.871,62.672 26.759,63.888 26.721,64.989 26.373,65.219 25.96,65.485 23.527,65.371 
	22.541,64.8 22.35,64.647 22.007,63.965 15.85,57.389 15.507,56.856 18.739,56.894 21.816,56.172 22.616,55.83 24.401,55.945 
	25.617,55.145 26.316,55.21 26.417,55.221 "/>
<path fill="#21B28A" d="M27.94,46.267l1.015,1.704l-3.602,4.037l-0.149-0.131l0.177-0.198c0.195-0.22,0.267-0.441,0.209-0.662
	c-0.032-0.127-0.196-0.32-0.489-0.585l-3.371-3.012c-0.324-0.288-0.561-0.432-0.705-0.432c-0.202,0-0.392,0.099-0.566,0.297
	l-0.176,0.196l-0.147-0.133l2.098-2.351l0.149,0.133c-0.247,0.272-0.394,0.485-0.438,0.642c-0.043,0.158-0.043,0.294,0,0.408
	c0.046,0.112,0.22,0.305,0.528,0.579l3.281,2.931c0.212,0.191,0.378,0.299,0.493,0.329c0.082,0.019,0.166,0.006,0.248-0.035
	s0.275-0.229,0.574-0.566l0.34-0.381c0.356-0.398,0.577-0.705,0.663-0.919c0.085-0.212,0.112-0.455,0.082-0.721
	c-0.03-0.267-0.147-0.609-0.351-1.031L27.94,46.267z"/>
<path fill="#21B28A" d="M26.42,80.979v4.729h-0.237c-0.141-1.095-0.299-1.88-0.473-2.359c-0.174-0.479-0.411-0.858-0.713-1.146
	c-0.171-0.154-0.465-0.233-0.89-0.233h-0.661v13.526c0,0.905,0.024,1.473,0.076,1.697c0.049,0.227,0.149,0.424,0.296,0.594
	c0.147,0.172,0.349,0.256,0.604,0.256h0.296v0.463H20.01v-0.463h0.3c0.261,0,0.47-0.093,0.631-0.275
	c0.114-0.122,0.204-0.329,0.272-0.626c0.048-0.209,0.074-0.757,0.074-1.646V81.969h-0.664c-0.613,0-1.059,0.254-1.336,0.751
	c-0.389,0.698-0.636,1.694-0.74,2.987H18.31v-4.729H26.42z"/>
<path fill="#21B28A" d="M23.604,68.069v0.264l-0.797,0.382l-0.229,0.114l-0.457,0.646l-0.114,0.227l0.114,0.267l-0.343,0.114
	l0.038,0.381l-0.266,1.254l-1.103,1.598h-1.14l-3.077-1.751l-0.114-0.228l-1.673-1.368l-0.686-1.407l-0.455-0.606l-1.14-4.029
	l0.114-0.228l3.724-0.267l4.94,0.608l0.267,0.723l1.708,1.444l0.609,1.597L23.604,68.069z M21.133,69.133v-0.342l-0.114-0.229
	l-5.741-3.076l-1.102,0.188v0.57l0.229,0.267l0.683,0.798l4.372,2.167l0.911,0.227L21.133,69.133z"/>
<polygon fill="#21B28A" points="23.49,69.058 23.49,74.302 20.448,74.302 20.448,73.77 21.969,71.832 22.578,69.702 "/>
<polygon fill="#21B28A" points="20.448,73.77 20.448,74.302 13.457,74.302 15.698,71.832 18.965,73.77 "/>
<path fill="#21B28A" d="M18.595,92.319l-0.34,6.186h-7.993v-0.463h0.302c0.261,0,0.473-0.093,0.634-0.275
	c0.114-0.122,0.205-0.329,0.267-0.626c0.049-0.209,0.074-0.757,0.074-1.646V83.988c0-0.907-0.024-1.47-0.074-1.698
	c-0.049-0.227-0.147-0.425-0.296-0.593c-0.15-0.172-0.351-0.256-0.604-0.256h-0.302v-0.463h4.796v0.463H14.67
	c-0.262,0-0.471,0.092-0.629,0.274c-0.114,0.122-0.204,0.332-0.269,0.626c-0.049,0.209-0.073,0.759-0.073,1.646v11.149
	c0,0.896,0.024,1.465,0.079,1.71c0.052,0.244,0.158,0.43,0.31,0.55c0.112,0.076,0.378,0.114,0.8,0.114h0.748
	c0.476,0,0.873-0.164,1.189-0.493c0.318-0.326,0.593-0.847,0.824-1.557c0.231-0.71,0.452-1.757,0.658-3.143H18.595z"/>
<path fill="#21B28A" d="M9.857,98.042v0.463H5.499v-0.463h0.179c0.351,0,0.596-0.096,0.737-0.286
	c0.098-0.14,0.147-0.341,0.147-0.601c0-0.155-0.014-0.316-0.041-0.482c-0.008-0.079-0.076-0.405-0.198-0.979l-0.49-2.182H2.672
	l-0.395,1.706c-0.125,0.574-0.185,1.044-0.185,1.419c0,0.494,0.101,0.858,0.305,1.092c0.119,0.139,0.413,0.244,0.883,0.313v0.463
	H0.286v-0.463c0.321-0.096,0.588-0.356,0.797-0.787c0.207-0.429,0.465-1.313,0.77-2.658l3.224-13.982h0.126l3.253,14.372
	c0.31,1.367,0.563,2.23,0.765,2.587C9.371,97.844,9.582,97.998,9.857,98.042 M5.618,92.552l-1.344-5.994l-1.382,5.994H5.618z"/>
</svg>
