<?xml version="1.0" encoding="utf-8"?>
<!-- Generator: Adobe Illustrator 16.0.0, SVG Export Plug-In . SVG Version: 6.00 Build 0)  -->
<!DOCTYPE svg PUBLIC "-//W3C//DTD SVG 1.1//EN" "http://www.w3.org/Graphics/SVG/1.1/DTD/svg11.dtd">
<svg version="1.1" id="Layer_1" xmlns="http://www.w3.org/2000/svg" xmlns:xlink="http://www.w3.org/1999/xlink" x="0px" y="0px"
	 width="152px" height="152px" viewBox="0 0 152 152" enable-background="new 0 0 152 152" xml:space="preserve">
<polygon fill="#21B28A" points="151.515,101.146 151.515,103.97 151.134,103.97 151.134,101.531 150.175,103.97 149.843,103.97 
	148.883,101.531 148.931,103.97 148.502,103.97 148.502,101.146 149.171,101.146 150.03,103.351 150.894,101.146 "/>
<polygon fill="#21B28A" points="148.215,101.146 148.215,101.531 147.688,101.531 147.639,103.97 147.208,103.97 147.208,101.531 
	146.684,101.531 146.684,101.146 "/>
<path fill="#21B28A" d="M146.663,118.389c0,1.843-0.374,3.429-1.113,4.759c-0.741,1.326-1.684,1.991-2.821,1.991
	c-0.358,0-0.698-0.072-1.018-0.213c-0.318-0.141-0.715-0.403-1.199-0.795c-0.267-0.216-0.49-0.325-0.66-0.325
	c-0.147,0-0.302,0.109-0.463,0.329c-0.161,0.219-0.295,0.555-0.395,1.004h-0.301v-8.33h0.301c0.246,2.345,0.724,4.129,1.426,5.358
	c0.702,1.23,1.46,1.848,2.275,1.848c0.626,0,1.127-0.332,1.5-0.993s0.56-1.434,0.56-2.313c0-0.521-0.073-1.024-0.214-1.515
	c-0.146-0.486-0.362-0.949-0.658-1.391c-0.29-0.438-0.808-1.011-1.551-1.717c-1.039-0.986-1.785-1.83-2.237-2.522
	c-0.449-0.695-0.795-1.47-1.039-2.326c-0.24-0.856-0.362-1.799-0.362-2.83c0-1.755,0.332-3.251,1-4.487
	c0.664-1.235,1.501-1.854,2.515-1.854c0.367,0,0.727,0.086,1.073,0.257c0.264,0.13,0.581,0.37,0.959,0.719
	c0.377,0.35,0.644,0.525,0.795,0.525c0.145,0,0.257-0.086,0.343-0.261c0.082-0.172,0.161-0.586,0.236-1.24h0.254l0.085,7.373h-0.339
	c-0.165-1.854-0.565-3.344-1.199-4.475c-0.638-1.127-1.323-1.693-2.063-1.693c-0.572,0-1.024,0.299-1.356,0.892
	c-0.336,0.59-0.501,1.271-0.501,2.042c0,0.486,0.059,0.922,0.175,1.303c0.164,0.51,0.425,1.014,0.785,1.514
	c0.263,0.356,0.877,0.99,1.833,1.905c1.34,1.268,2.237,2.467,2.696,3.594C146.437,115.647,146.663,116.939,146.663,118.389"/>
<path fill="#21B28A" d="M143.918,82.233c0.897,0.97,0.746,2.57-0.332,3.573c-1.083,1.001-2.689,1.028-3.591,0.059
	c-0.897-0.969-0.751-2.569,0.332-3.573C141.41,81.287,143.017,81.265,143.918,82.233 M143.414,83.898
	c0.038-0.153,0.024-0.298-0.034-0.435c-0.062-0.138-0.195-0.315-0.401-0.542l-0.795-0.855l-0.054,0.047
	c0.078,0.085,0.127,0.154,0.137,0.202s0.007,0.093-0.01,0.13c-0.021,0.042-0.087,0.113-0.203,0.223l-1.394,1.293
	c-0.113,0.105-0.193,0.167-0.233,0.181c-0.042,0.014-0.085,0.018-0.134,0.003c-0.045-0.014-0.109-0.064-0.188-0.15l-0.055,0.048
	l0.884,0.953l0.052-0.048c-0.079-0.086-0.123-0.154-0.134-0.202c-0.011-0.049-0.007-0.089,0.011-0.131
	c0.017-0.041,0.085-0.112,0.201-0.223l0.601-0.555l0.112,0.12l-0.421,1.494l0.538,0.582l0.058-0.055
	c-0.044-0.052-0.065-0.113-0.068-0.182c0-0.044,0.021-0.141,0.058-0.284l0.316-1.11c0.133,0.082,0.263,0.123,0.387,0.127
	c0.192,0,0.366-0.073,0.524-0.22C143.298,84.193,143.38,84.057,143.414,83.898"/>
<polygon fill="#21B28A" points="143.511,98.663 6.744,98.663 16.557,87.907 17.42,88.908 9.903,97.33 33.733,97.33 140.112,97.33 
	113.153,70.81 113.149,70.796 113.118,70.779 83.265,41.412 71.083,29.43 33.839,69.683 32.883,69.066 70.844,27.717 "/>
<path fill="#21B28A" d="M142.842,83.015c0.137,0.144,0.196,0.288,0.179,0.425c-0.017,0.137-0.106,0.281-0.271,0.432
	c-0.109,0.104-0.219,0.168-0.322,0.199c-0.103,0.027-0.194,0.024-0.279-0.014c-0.083-0.038-0.186-0.12-0.303-0.247l-0.071-0.075
	l0.936-0.867L142.842,83.015z"/>
<path fill="#21B28A" d="M139.639,80.25l-2.118,2.142l-0.178-0.176c0.35-0.466,0.572-0.891,0.671-1.274
	c0.097-0.383,0.082-0.777-0.041-1.182c-0.122-0.405-0.325-0.748-0.609-1.024c-0.318-0.318-0.682-0.48-1.083-0.494
	c-0.4-0.01-0.723,0.106-0.969,0.356c-0.188,0.191-0.295,0.429-0.315,0.717c-0.042,0.422,0.109,1.175,0.448,2.268
	c0.274,0.892,0.436,1.525,0.487,1.905c0.048,0.381,0.02,0.739-0.09,1.082c-0.106,0.343-0.284,0.639-0.53,0.885
	c-0.467,0.473-1.053,0.698-1.759,0.679c-0.705-0.021-1.35-0.319-1.928-0.892c-0.183-0.178-0.34-0.362-0.47-0.548
	c-0.083-0.109-0.227-0.359-0.429-0.754c-0.206-0.395-0.35-0.63-0.429-0.709c-0.078-0.075-0.16-0.113-0.25-0.113
	c-0.093,0.004-0.219,0.065-0.383,0.189l-0.176-0.176l2.118-2.142l0.175,0.175c-0.364,0.528-0.59,0.97-0.676,1.33
	c-0.081,0.356-0.061,0.746,0.071,1.168c0.135,0.422,0.364,0.799,0.696,1.127c0.384,0.377,0.788,0.576,1.214,0.593
	c0.421,0.018,0.771-0.113,1.044-0.387c0.151-0.154,0.265-0.353,0.332-0.593c0.073-0.24,0.087-0.519,0.042-0.826
	c-0.031-0.212-0.164-0.729-0.404-1.559s-0.388-1.442-0.438-1.844c-0.052-0.403-0.027-0.771,0.068-1.103
	c0.096-0.329,0.271-0.628,0.523-0.884c0.446-0.449,1.001-0.665,1.666-0.648c0.665,0.014,1.264,0.288,1.799,0.813
	c0.333,0.328,0.603,0.758,0.818,1.288c0.097,0.247,0.183,0.403,0.254,0.474c0.079,0.078,0.168,0.119,0.264,0.123
	c0.1,0.003,0.233-0.052,0.404-0.162L139.639,80.25z"/>
<path fill="#21B28A" d="M137.202,102.565v5.955h-0.298c-0.182-1.378-0.381-2.367-0.597-2.971c-0.219-0.604-0.517-1.082-0.9-1.442
	c-0.213-0.195-0.583-0.295-1.117-0.295h-0.833v17.036c0,1.141,0.031,1.854,0.094,2.138c0.064,0.285,0.188,0.534,0.376,0.748
	c0.186,0.216,0.438,0.321,0.76,0.321h0.374v0.583h-5.93v-0.583h0.376c0.328,0,0.593-0.116,0.795-0.346
	c0.144-0.154,0.257-0.415,0.342-0.788c0.063-0.265,0.093-0.953,0.093-2.073v-17.036h-0.835c-0.774,0-1.333,0.319-1.683,0.945
	c-0.49,0.881-0.802,2.135-0.933,3.763h-0.298v-5.955H137.202z"/>
<path fill="#21B28A" d="M134.407,75.347l-1.297,1.432l-0.194-0.188c0.26-0.39,0.411-0.685,0.452-0.884
	c0.045-0.199,0.021-0.404-0.068-0.62c-0.076-0.164-0.268-0.401-0.575-0.702l-1.696-1.676l-2.44,2.467l1.347,1.33
	c0.354,0.35,0.642,0.53,0.867,0.541c0.298,0.014,0.631-0.145,0.997-0.479l0.178,0.175l-2.145,2.172l-0.178-0.174
	c0.258-0.347,0.407-0.583,0.448-0.714c0.052-0.16,0.045-0.336-0.017-0.521c-0.065-0.186-0.227-0.404-0.487-0.66l-1.346-1.33
	l-2.025,2.052c-0.273,0.274-0.425,0.456-0.463,0.538c-0.033,0.086-0.036,0.175-0.01,0.271c0.027,0.096,0.126,0.229,0.299,0.398
	l1.054,1.044c0.354,0.35,0.635,0.576,0.844,0.686c0.205,0.109,0.452,0.165,0.743,0.168c0.374,0,0.85-0.092,1.426-0.274l0.191,0.189
	l-2.085,1.034l-4.829-4.769l0.176-0.18l0.223,0.224c0.149,0.147,0.324,0.25,0.526,0.311c0.148,0.049,0.292,0.042,0.422-0.02
	c0.134-0.065,0.35-0.246,0.651-0.553l4.001-4.049c0.398-0.404,0.601-0.692,0.614-0.863c0.01-0.237-0.113-0.484-0.374-0.74
	l-0.223-0.219l0.176-0.178L134.407,75.347z"/>
<polygon fill="#21B28A" points="127.896,91.43 128.181,92.099 111.094,92.529 110.949,92.386 114.253,90.183 114.969,90.039 
	116.405,88.314 116.549,87.982 116.405,86.115 115.688,84.008 113.677,81.661 113.677,81.374 115.545,81.374 115.832,81.185 
	116.549,80.562 117.268,80.562 "/>
<path fill="#21B28A" d="M126.862,68.178c0.223,0.411,0.314,0.853,0.276,1.333c-0.037,0.476-0.232,0.897-0.589,1.257
	c-0.38,0.384-0.839,0.593-1.371,0.626c-0.53,0.035-1.12-0.15-1.768-0.555l-0.47,3.077c-0.113,0.706-0.131,1.23-0.051,1.573
	c0.082,0.346,0.273,0.706,0.579,1.079l-0.175,0.178l-1.679-1.654l0.764-5.03c-0.16-0.144-0.288-0.267-0.384-0.36
	c-0.041-0.041-0.082-0.082-0.123-0.126c-0.045-0.048-0.09-0.096-0.134-0.147l0.291-0.295c0.059,0.055,0.106,0.106,0.147,0.151
	c0.042,0.045,0.075,0.079,0.103,0.106c0.593,0.583,1.162,0.895,1.721,0.932c0.555,0.038,1.028-0.144,1.425-0.545
	c0.384-0.39,0.576-0.829,0.576-1.312s-0.199-0.922-0.597-1.316c-0.068-0.065-0.146-0.133-0.239-0.206l0.366-0.37l0.003,0.003
	C126.2,67.236,126.643,67.771,126.862,68.178"/>
<path fill="#21B28A" d="M125.98,102.565v0.583c-0.481,0.119-0.809,0.277-0.973,0.465c-0.168,0.193-0.294,0.505-0.388,0.937
	c-0.092,0.432-0.14,1.172-0.14,2.22v18.369h-0.285l-7.66-18.314v13.982c0,1.271,0.149,2.136,0.452,2.581
	c0.302,0.445,0.647,0.668,1.034,0.668h0.271v0.583h-4.05v-0.583c0.627-0.01,1.059-0.26,1.305-0.755
	c0.244-0.485,0.367-1.318,0.367-2.494V105.27l-0.256-0.614c-0.24-0.603-0.452-1-0.635-1.188c-0.185-0.192-0.449-0.295-0.795-0.318
	v-0.583h4.043l5.589,13.605v-9.401c0-1.333-0.1-2.234-0.295-2.703c-0.268-0.634-0.72-0.938-1.354-0.918v-0.583H125.98z"/>
<path fill="#21B28A" d="M125.532,66.575l-0.366,0.37c-0.154-0.124-0.35-0.253-0.579-0.397l-2.557,2.587l-0.291,0.295l-1.795,1.819
	c-0.388,0.391-0.587,0.675-0.593,0.856c-0.018,0.25,0.092,0.49,0.328,0.723l0.244,0.24l-0.176,0.178l-2.689-2.655l0.176-0.178
	l0.236,0.233c0.263,0.26,0.538,0.363,0.821,0.305c0.158-0.03,0.415-0.223,0.765-0.579l4.002-4.05
	c0.384-0.391,0.582-0.679,0.589-0.857c0.014-0.253-0.099-0.497-0.336-0.733l-0.235-0.233l0.174-0.175L125.532,66.575z"/>
<path fill="#21B28A" d="M122.983,64.057l-0.179,0.178l-0.233-0.233c-0.246-0.244-0.541-0.329-0.877-0.253
	c-0.157,0.03-0.407,0.223-0.754,0.572l-2.501,2.529c-0.62,0.627-1.161,1.052-1.624,1.274c-0.466,0.219-1.004,0.274-1.613,0.161
	c-0.606-0.113-1.228-0.479-1.854-1.096c-0.683-0.675-1.083-1.305-1.203-1.892c-0.119-0.586-0.059-1.154,0.188-1.7
	c0.171-0.37,0.63-0.932,1.374-1.686l2.415-2.443c0.377-0.38,0.572-0.682,0.583-0.908c0.014-0.223-0.097-0.449-0.333-0.682
	l-0.233-0.229l0.176-0.178l2.689,2.659l-0.175,0.174l-0.236-0.233c-0.257-0.253-0.521-0.352-0.791-0.301
	c-0.186,0.037-0.448,0.226-0.795,0.576l-2.69,2.724c-0.239,0.243-0.489,0.541-0.757,0.897c-0.265,0.359-0.425,0.682-0.48,0.973
	c-0.054,0.291-0.029,0.603,0.076,0.932c0.11,0.332,0.322,0.654,0.644,0.97c0.408,0.404,0.863,0.678,1.36,0.818
	c0.5,0.141,0.946,0.13,1.34-0.03c0.392-0.161,0.915-0.572,1.573-1.237l2.497-2.529c0.385-0.387,0.58-0.675,0.59-0.856
	c0.014-0.254-0.096-0.498-0.336-0.733l-0.236-0.229l0.175-0.178L122.983,64.057z"/>
<path fill="#21B28A" d="M116.74,78.262l0.145,0.625l-0.433,0.431l-2.727,0.669l-1.437,0.286l-0.287,0.193l-0.145,0.287l-0.144,0.336
	l2.73,2.823l0.144,1.292l0.284,0.432l0.145,2.06l-0.145,0.48l-1.004,0.763l-1.291,0.336l-2.587,3.159l-0.145,0.48l-0.428,0.428
	l-4.599,0.527l-1.388,0.624l-0.287-0.192l-2.439-2.826l0.144-0.62l0.86-0.96v-0.956l-0.62-1.1l2.056-0.432l1.103-0.814l0.285-0.142
	l0.432-0.959c0.145-3.159,3.879-6.175,3.159-9.333l-0.185-0.688l-0.243-0.891l-0.433-0.768l-0.72-0.624l-0.716-0.14l-1.436-1.104
	l-0.96-0.191l-1.436,0.191l-0.432,0.144l-0.287-0.144l-0.572-1.148l-0.145-0.287l-1.147-0.957l0.145-0.912l0.146-0.103l1.001-0.709
	l0.287-0.192l0.285-0.145l0.432-0.623l0.815-0.144l2.439-0.332l0.72-0.145l0.287-0.191l2.872,1.148l0.859,0.623l0.576,0.956
	l0.145,0.288l0.575,0.479l2.12,1.227l0.035,0.031l0.284,1.758l0.863,0.62l1.723,1.248l0.145,0.335l0.428,3.159L116.74,78.262z"/>
<path fill="#21B28A" d="M115.458,56.361l-2.117,2.142l-0.178-0.175c0.349-0.463,0.571-0.888,0.672-1.274
	c0.096-0.384,0.082-0.778-0.041-1.182c-0.124-0.404-0.326-0.747-0.611-1.024c-0.317-0.319-0.682-0.48-1.082-0.494
	c-0.401-0.009-0.727,0.11-0.973,0.356c-0.186,0.192-0.291,0.433-0.315,0.717c-0.037,0.421,0.112,1.175,0.448,2.269
	c0.278,0.89,0.438,1.524,0.491,1.904c0.048,0.381,0.02,0.741-0.09,1.083c-0.109,0.342-0.284,0.637-0.531,0.884
	c-0.465,0.473-1.051,0.699-1.761,0.678c-0.706-0.021-1.347-0.318-1.926-0.891c-0.182-0.178-0.339-0.364-0.474-0.548
	c-0.078-0.11-0.222-0.36-0.428-0.754c-0.201-0.394-0.346-0.631-0.425-0.709c-0.079-0.075-0.161-0.113-0.253-0.11
	c-0.09,0-0.216,0.062-0.381,0.185l-0.178-0.174l2.117-2.142l0.179,0.175c-0.363,0.528-0.59,0.97-0.675,1.33
	c-0.087,0.356-0.063,0.747,0.071,1.168c0.13,0.421,0.363,0.798,0.696,1.127c0.382,0.38,0.787,0.576,1.209,0.592
	c0.425,0.018,0.773-0.109,1.049-0.387c0.15-0.154,0.261-0.353,0.332-0.593s0.082-0.514,0.041-0.826
	c-0.03-0.212-0.165-0.73-0.404-1.559c-0.244-0.826-0.388-1.443-0.438-1.843c-0.052-0.405-0.028-0.771,0.065-1.104
	c0.096-0.329,0.27-0.624,0.527-0.884c0.442-0.448,0.996-0.665,1.665-0.647c0.664,0.014,1.265,0.288,1.795,0.812
	c0.332,0.329,0.606,0.761,0.822,1.288c0.096,0.247,0.182,0.405,0.251,0.473c0.082,0.079,0.171,0.124,0.267,0.124
	c0.101,0.003,0.232-0.051,0.405-0.161L115.458,56.361z"/>
<path fill="#21B28A" d="M113.825,124.056v0.583h-5.49v-0.583h0.227c0.441,0,0.751-0.12,0.929-0.359
	c0.123-0.176,0.185-0.429,0.185-0.757c0-0.196-0.017-0.398-0.051-0.607c-0.011-0.1-0.096-0.511-0.25-1.233l-0.617-2.748h-3.981
	l-0.497,2.148c-0.158,0.724-0.232,1.315-0.232,1.788c0,0.621,0.126,1.08,0.384,1.374c0.149,0.176,0.521,0.309,1.113,0.395v0.583
	h-3.772v-0.583c0.404-0.12,0.74-0.448,1.004-0.99c0.261-0.541,0.582-1.654,0.97-3.348l4.06-17.61h0.157l4.099,18.101
	c0.387,1.723,0.709,2.81,0.959,3.258C113.211,123.806,113.479,124.001,113.825,124.056 M108.486,117.142l-1.692-7.549l-1.741,7.549
	H108.486z"/>
<polygon fill="#21B28A" points="113.149,70.796 113.153,70.81 113.118,70.779 "/>
<path fill="#21B28A" d="M107.821,48.816l-2.991,7.329c-0.236,0.589-0.343,1.018-0.322,1.281c0.021,0.265,0.151,0.531,0.392,0.798
	l-0.176,0.178l-2.487-2.457l0.176-0.178c0.26,0.232,0.468,0.359,0.626,0.376c0.158,0.018,0.283-0.024,0.384-0.127
	c0.134-0.134,0.281-0.404,0.442-0.816l0.523-1.281l-2.432-2.402l-1.408,0.565c-0.347,0.137-0.576,0.267-0.693,0.387
	c-0.096,0.092-0.134,0.223-0.113,0.384c0.021,0.161,0.173,0.4,0.453,0.723l-0.175,0.175l-1.98-1.956l0.175-0.175
	c0.309,0.212,0.535,0.318,0.686,0.318c0.305,0.007,0.777-0.124,1.419-0.391l7.305-2.93L107.821,48.816z M104.59,53.425l1.463-3.56
	l-3.594,1.453L104.59,53.425z"/>
<path fill="#21B28A" d="M107.167,75.679v1.58l-0.144,0.479l-0.576,1.867l-2.007,3.016l-0.289,2.343l-0.72,1.151l-2.583,0.429h-0.863
	l-0.288,0.479l-0.14,1.436l-0.864,1.056l-0.576,0.332l-1.004,0.192l-0.719,0.144h-0.716l-1.148-0.956l-0.576-0.144l-0.575-0.624
	l-0.287-0.477H90.22l-2.106-0.959l-1.004-1.101L86.917,85.3l-0.527-0.764l-0.908-1.771l-0.145-3.159l1.915-2.827l0.24-1.436
	l-0.24-0.476l0.957-1.103l1.343-2.823l4.547-1.436l0.432,0.144l0.717,1.292l0.144,0.288l0.575,0.524h1.005l0.143-0.333l0.717-0.671
	l1.296-0.144l0.287,0.144l0.428,0.48l0.145,0.956v0.336l0.575,0.62l0.288,0.191l4.02,0.144l0.719,0.624l0.145,0.288l0.572,0.668
	L107.167,75.679z M100.321,78.074l0.145-2.06c-1.725-2.203-3.447-0.144-5.314-0.144l-2.297-0.767l-1.007,0.143l-0.288,0.145
	l-1.291,1.436l-0.289,1.724l0.145,0.336l0.575,0.955l0.145,1.247l-0.432,2.2l0.144,0.336l0.572,1.243l0.72,0.768h0.863l2.152-0.624
	l1.295-0.62l0.86,0.477l2.155-0.284l1.147-1.771l-0.145-0.96v-1.1l-0.144-0.287l-0.716-0.956v-0.336l0.144-0.287l0.285-0.192
	L100.321,78.074z"/>
<path fill="#21B28A" d="M103.395,44.708l-1.299,1.433l-0.191-0.189c0.261-0.391,0.411-0.685,0.452-0.884
	c0.045-0.198,0.021-0.404-0.068-0.617c-0.076-0.167-0.268-0.401-0.576-0.706l-1.695-1.676l-2.44,2.467l1.347,1.329
	c0.354,0.35,0.641,0.531,0.867,0.542c0.298,0.018,0.63-0.144,0.997-0.479l0.178,0.175l-2.145,2.172L98.643,48.1
	c0.257-0.346,0.407-0.583,0.449-0.712c0.05-0.162,0.043-0.333-0.021-0.518c-0.062-0.185-0.227-0.408-0.483-0.665l-1.347-1.329
	l-2.025,2.052c-0.273,0.278-0.428,0.456-0.462,0.541c-0.034,0.083-0.038,0.171-0.011,0.268c0.024,0.096,0.127,0.229,0.299,0.397
	l1.055,1.045c0.354,0.349,0.635,0.579,0.841,0.688c0.209,0.106,0.455,0.165,0.746,0.165c0.373,0,0.85-0.093,1.426-0.274l0.191,0.188
	l-2.087,1.035l-4.827-4.766l0.175-0.178l0.223,0.22c0.15,0.147,0.326,0.25,0.527,0.312c0.147,0.051,0.287,0.041,0.422-0.021
	c0.134-0.065,0.349-0.247,0.65-0.552l3.999-4.05c0.397-0.401,0.603-0.688,0.617-0.863c0.01-0.237-0.113-0.48-0.374-0.737
	l-0.223-0.223l0.174-0.175L103.395,44.708z"/>
<polygon fill="#21B28A" points="101.564,65.099 101.709,65.866 99.269,67.925 99.269,67.445 98.837,66.486 97.978,65.434 
	97.545,64.286 96.395,63.854 94.671,63.854 93.379,63.854 89.407,63.998 87.637,63.854 85.673,66.058 85.481,65.866 85.481,64.479 
	86.198,61.127 85.961,60.695 85.817,59.116 86.057,58.492 86.198,57.68 86.198,54.806 87.109,51.982 86.773,51.502 86.677,51.218 
	86.677,50.595 "/>
<path fill="#21B28A" d="M101.027,116.85l-0.429,7.789H90.531v-0.583h0.381c0.329,0,0.597-0.116,0.799-0.346
	c0.147-0.154,0.257-0.415,0.335-0.788c0.062-0.265,0.093-0.953,0.093-2.073v-14.493c0-1.142-0.031-1.851-0.093-2.139
	c-0.061-0.284-0.185-0.534-0.373-0.747c-0.188-0.216-0.442-0.321-0.761-0.321h-0.381v-0.583h6.041v0.583h-0.49
	c-0.329,0-0.592,0.116-0.791,0.346c-0.144,0.154-0.257,0.418-0.34,0.788c-0.062,0.264-0.092,0.956-0.092,2.073v14.044
	c0,1.128,0.034,1.844,0.099,2.152c0.069,0.308,0.2,0.541,0.395,0.692c0.138,0.096,0.474,0.144,1.008,0.144h0.938
	c0.6,0,1.1-0.206,1.5-0.62c0.398-0.411,0.744-1.066,1.035-1.961c0.292-0.894,0.569-2.213,0.83-3.957H101.027z"/>
<polygon fill="#21B28A" points="100.417,89.419 97.83,93.342 97.689,94.014 95.247,94.493 94.53,94.637 92.854,95.736 
	91.704,95.736 88.113,94.014 83.662,91.666 83.518,91.334 83.662,88.65 83.807,88.027 83.662,87.695 84.046,85.972 84.237,85.636 
	85.098,85.492 86.773,87.839 87.396,88.508 91.416,89.274 95.534,91.334 98.317,90.569 99.558,90.23 "/>
<polygon fill="#21B28A" points="99.558,77.066 99.558,77.402 97.978,79.125 97.978,79.938 98.981,81.185 99.269,81.521 
	99.269,82.142 98.406,83.385 97.258,83.576 96.254,83.385 95.679,82.957 95.391,82.765 95.103,82.957 94.243,84.2 92.52,84.2 
	92.088,83.721 91.943,82.477 91.799,81.806 92.375,80.562 92.52,80.226 91.512,78.838 91.371,77.402 91.943,76.491 92.52,75.823 
	95.391,77.066 95.679,77.259 96.254,77.259 96.538,77.066 97.545,76.159 98.262,76.159 "/>
<polygon fill="#21B28A" points="97.258,65.578 97.113,69.98 96.826,70.173 96.254,70.173 95.391,68.881 95.247,68.593 
	92.088,68.068 88.688,69.36 87.396,70.46 87.109,71.228 86.485,73 86.198,71.752 85.673,71.752 85.428,71.228 84.618,69.504 
	84.521,69.169 84.521,68.401 85.673,67.301 88.354,64.906 88.688,64.811 89.837,64.906 92.807,64.811 96.109,64.811 "/>
<path fill="#21B28A" d="M95.853,37.543c0.22,0.408,0.313,0.854,0.274,1.33c-0.038,0.479-0.232,0.897-0.59,1.257
	c-0.379,0.387-0.838,0.596-1.37,0.631c-0.534,0.034-1.12-0.155-1.765-0.559l-0.473,3.08c-0.113,0.703-0.131,1.227-0.047,1.573
	c0.074,0.346,0.267,0.706,0.574,1.079l-0.174,0.179l-1.68-1.658l0.765-5.03c-0.162-0.144-0.287-0.264-0.384-0.359
	c-0.041-0.038-0.082-0.083-0.123-0.127c-0.045-0.048-0.09-0.096-0.134-0.147l0.291-0.294c0.059,0.058,0.105,0.109,0.147,0.15
	c0.04,0.044,0.075,0.079,0.103,0.106c0.59,0.583,1.165,0.894,1.72,0.932c0.552,0.038,1.028-0.145,1.422-0.545
	c0.388-0.39,0.58-0.825,0.58-1.309c0-0.483-0.199-0.921-0.598-1.315c-0.064-0.065-0.146-0.134-0.239-0.209l0.367-0.37l0.003,0.003
	C95.188,36.598,95.63,37.132,95.853,37.543"/>
<path fill="#21B28A" d="M94.521,35.937l-0.367,0.37c-0.157-0.12-0.349-0.253-0.578-0.397l-2.557,2.587l-0.291,0.294l-1.796,1.819
	c-0.388,0.391-0.586,0.678-0.592,0.856c-0.018,0.25,0.092,0.49,0.328,0.723l0.243,0.244l-0.175,0.178l-2.689-2.659l0.174-0.178
	l0.237,0.233c0.264,0.264,0.538,0.363,0.822,0.305c0.158-0.03,0.411-0.223,0.764-0.579l3.999-4.05
	c0.388-0.39,0.586-0.675,0.593-0.856c0.014-0.253-0.099-0.497-0.336-0.73l-0.236-0.233l0.174-0.178L94.521,35.937z"/>
<path fill="#21B28A" d="M91.766,33.219l-1.398,1.532l-0.175-0.171c0.223-0.291,0.356-0.524,0.408-0.692
	c0.082-0.271,0.085-0.528,0.014-0.768c-0.076-0.24-0.24-0.487-0.497-0.74l-0.873-0.863l-4.731,4.786
	c-0.374,0.381-0.566,0.658-0.576,0.837c-0.004,0.246,0.117,0.493,0.366,0.736l0.219,0.219l-0.174,0.178l-2.689-2.656l0.174-0.178
	l0.227,0.223c0.268,0.264,0.539,0.373,0.805,0.329c0.169-0.031,0.418-0.215,0.761-0.562l4.732-4.79l-0.754-0.747
	c-0.295-0.292-0.524-0.473-0.692-0.552c-0.216-0.103-0.466-0.127-0.743-0.072c-0.281,0.055-0.569,0.212-0.87,0.473l-0.176-0.175
	l1.516-1.415L91.766,33.219z"/>
<path fill="#21B28A" d="M88.637,104.252c0.714,1.124,1.069,2.531,1.069,4.217c0,1.429-0.229,2.649-0.688,3.666
	c-0.459,1.019-1.09,1.711-1.895,2.077c-0.542,0.26-1.461,0.39-2.752,0.39v6.165c0,1.199,0.037,1.956,0.117,2.265
	c0.075,0.312,0.212,0.563,0.407,0.747c0.198,0.185,0.559,0.277,1.083,0.277v0.583h-5.825v-0.583c0.534,0,0.897-0.096,1.09-0.288
	c0.188-0.188,0.322-0.438,0.4-0.743c0.075-0.306,0.117-1.059,0.117-2.258v-14.329c0-1.199-0.042-1.956-0.117-2.266
	c-0.078-0.312-0.212-0.562-0.407-0.746c-0.192-0.185-0.556-0.277-1.083-0.277v-0.583h4.965
	C86.753,102.565,87.928,103.128,88.637,104.252 M86.94,108.552c0-1.652-0.185-2.865-0.558-3.629
	c-0.37-0.769-0.926-1.151-1.665-1.151h-0.347v9.621c0.186,0.024,0.329,0.035,0.422,0.035c0.688,0,1.22-0.398,1.59-1.193
	C86.756,111.443,86.94,110.213,86.94,108.552"/>
<polygon fill="#21B28A" points="85.913,75.727 85.913,76.539 84.333,78.887 84.046,79.51 83.614,81.709 83.901,82.86 84.189,83.48 
	84.478,83.816 84.478,84.248 83.614,84.584 83.039,87.599 82.467,88.219 81.891,87.887 79.447,88.027 77.152,87.071 76.004,87.071 
	75.285,87.071 74.901,83.145 74.473,82.381 74.329,82.045 74.709,80.13 75.285,79.7 75.429,78.887 77.867,75.583 79.735,73.859 
	84.618,73.667 84.762,73.523 84.333,72.759 84.046,71.608 84.478,71.464 84.618,71.608 84.762,72.759 85.481,73.667 "/>
<path fill="#21B28A" d="M85.241,46.667l0.576,5.986l-0.576,0.957v1.103l-0.572,3.923l-1.151,10.293l-0.431,3.447h-1.149h-0.575
	L79.783,73l-0.284,0.188l0.428-2.199c1.557-6.267-1.802-12.688-0.359-18.982c0.158-0.682,0.367-1.36,0.648-2.035l-0.289-0.812
	l-0.144-0.288l0.144-3.782l-2.008-2.68l-0.287-0.815l-1.295-2.2l-2.796-2.367l-0.935-0.792l0.038-0.469l3.981,0.325l2.155,2.2
	l0.86,0.336l3.447,2.968l0.72,1.579l0.144,0.959l0.571,1.58L85.241,46.667z"/>
<polygon fill="#21B28A" points="83.039,92.242 83.614,92.865 83.471,93.009 79.164,93.009 79.125,92.872 78.204,89.419 
	81.891,89.227 82.178,89.37 82.322,91.762 "/>
<path fill="#21B28A" d="M79.164,65.099l0.283,0.479l-0.572,6.942L78.731,73l-3.303,4.739l-0.864,1.243l-0.141,0.956l-0.576,0.769
	l-0.288,2.679l0.863,1.151v2.967l0.141,0.288l0.288,0.332l1.436,0.336l0.72,0.145l0.432,0.479l-0.145,2.823l1.148,1.146
	l-8.997,0.145l-0.144-0.668l0.144-1.1l-0.289-0.479v-2.827V86.88l0.429-4.738v-0.621v-3.782l-0.429-0.815l-0.287-1.1L69.446,73
	l-0.289-4.119l0.289-2.68l-0.289-1.579l0.573-3.495l-0.573-0.911l0.813-6.031l-1.387-2.823l-0.145-0.336l1.532-5.362l1.199-5.982
	l1.292-1.724l0.572-0.335l1.963,2.059l0.432,0.668l0.432,0.432l0.287,1.436l1.437,3.447l0.143,1.1
	c0.847,1.737,1.491,3.372,1.155,5.078c-0.061,0.315-0.157,0.634-0.294,0.956l-0.145,1.724l-0.432,2.391l0.432,0.768L79.164,65.099z"
	/>
<path fill="#21B28A" d="M75.055,102.565v0.583c-0.483,0.119-0.809,0.277-0.974,0.465c-0.165,0.193-0.294,0.505-0.387,0.937
	s-0.141,1.172-0.141,2.22v18.369H73.27l-7.662-18.314v13.982c0,1.272,0.15,2.136,0.453,2.581c0.301,0.445,0.647,0.668,1.035,0.668
	h0.271v0.583h-4.05v-0.583c0.627-0.01,1.059-0.26,1.306-0.755c0.243-0.485,0.366-1.318,0.366-2.494V105.27l-0.257-0.614
	c-0.24-0.603-0.449-1-0.634-1.188c-0.185-0.192-0.449-0.295-0.795-0.318v-0.583h4.043l5.588,13.605v-9.401
	c0-1.333-0.1-2.234-0.294-2.703c-0.267-0.634-0.72-0.938-1.354-0.918v-0.583H75.055z"/>
<polygon fill="#21B28A" points="72.643,35.765 72.605,36.234 71.31,37.479 70.018,38.006 69.73,38.146 69.302,39.058 69.302,40.973 
	68.871,41.929 68.583,44.752 68.295,45.376 68.15,46.192 67.863,47.771 67.147,51.074 67.147,51.694 68.007,53.274 68.438,55.957 
	67.291,67.349 67.578,69.552 67.863,70.029 67.863,75.823 67.863,76.778 68.15,77.114 68.295,82.188 67.863,81.997 67.291,81.041 
	65.934,80.023 64.419,78.887 64.132,77.45 63.7,76.638 63.556,75.871 63.087,73.596 62.312,69.837 62.312,68.45 62.408,67.829 
	61.688,66.394 61.593,63.519 61.113,61.507 60.733,59.928 59.554,50.153 59.533,49.971 59.441,49.639 59.441,48.871 59.869,48.247 
	60.013,46.812 61.305,43.652 63.988,39.87 65.711,38.435 66.859,37.479 68.15,36.426 70.738,35.611 "/>
<polygon fill="#21B28A" points="68.295,90.95 68.295,93.197 64.992,93.197 65.087,91.666 63.844,91.094 64.419,87.167 64.56,86.735 
	65.135,86.115 67.578,84.68 68.295,84.823 68.295,86.403 "/>
<polygon fill="#21B28A" points="65.423,80.706 67.578,83.244 67.435,83.576 67.147,83.865 66.428,84.008 65.135,84.68 
	64.275,85.444 62.696,86.88 61.545,87.167 60.685,87.695 59.533,88.891 59.249,89.515 56.09,89.847 53.935,89.847 51.924,88.314 
	51.636,87.982 51.924,86.735 52.067,86.26 52.5,85.78 53.791,85.588 54.079,85.444 55.083,85.444 56.95,85.3 57.669,84.823 
	58.386,84.2 62.264,83.576 62.98,83.244 63.7,82.428 63.125,81.806 61.545,81.521 58.386,81.661 56.09,81.997 53.215,83.097 
	51.636,82.765 51.54,82.428 52.067,78.262 52.927,78.074 54.223,77.066 55.658,77.162 56.902,77.354 "/>
<polygon fill="#21B28A" points="63.125,92.289 63.844,93.053 53.839,93.053 52.212,92.099 48.371,89.494 48.189,89.37 
	48.045,88.891 50.057,87.695 50.344,87.503 50.776,87.503 50.851,88.085 50.919,88.604 51.348,89.515 51.492,89.847 52.788,90.806 
	53.647,90.806 54.507,91.286 57.813,91.618 59.249,91.286 59.533,91.094 59.821,90.95 61.261,88.891 61.545,88.748 62.408,88.604 
	63.125,88.891 62.264,92.242 62.408,92.529 "/>
<path fill="#21B28A" d="M62.898,124.056v0.583h-5.489v-0.583h0.226c0.442,0,0.75-0.12,0.928-0.359
	c0.124-0.176,0.185-0.429,0.185-0.757c0-0.196-0.017-0.398-0.051-0.607c-0.01-0.1-0.096-0.511-0.25-1.233l-0.617-2.748H53.85
	l-0.497,2.148c-0.158,0.724-0.233,1.315-0.233,1.788c0,0.621,0.126,1.08,0.384,1.374c0.15,0.176,0.521,0.309,1.113,0.395v0.583
	h-3.772v-0.583c0.405-0.12,0.74-0.448,1.004-0.99c0.26-0.541,0.583-1.654,0.97-3.348l4.06-17.61h0.158l4.097,18.101
	c0.391,1.723,0.71,2.81,0.963,3.258C62.285,123.806,62.552,124.001,62.898,124.056 M57.56,117.142l-1.693-7.549l-1.74,7.549H57.56z"
	/>
<path fill="#21B28A" d="M62.264,73.764l0.288,4.451l-1.723-0.813l-1.008-0.144l-2.792-0.549l-2.806-0.551h-0.288l-0.288,0.284
	l-1.196-0.047c-0.527-2.967-0.815-5.647,1.196-8.614l1.004-0.624l0.288-0.144l0.432-0.528l0.144-0.285l-0.144-0.479l-0.576-0.624
	l-2.152-0.192l-1.103,1.151l-1.34,0.764l-1.148,0.959l-0.527,0.145l-1.628,1.435l-1.244,0.957l-1.292,0.144l-0.719,0.624
	l-1.916,0.812l-0.956,0.767l-0.141,0.11l-0.915,0.703l-1.34-1.963l8.521-8.281l8.474-9.478l3.015-3.495h0.288l0.431,5.698
	l-0.575,4.259l1.436,2.059l0.144,2.347l0.144,2.199l0.432,0.624l-0.144,2.203L62.264,73.764z"/>
<path fill="#21B28A" d="M59.695,30.855l1.984,1.771c-0.134,0.545-0.316,1.042-0.545,1.484c-0.229,0.441-0.541,0.883-0.935,1.326
	c-1.13,1.264-2.395,1.864-3.79,1.795c-1.052-0.051-1.974-0.432-2.769-1.141c-0.575-0.517-1.004-1.148-1.285-1.894
	c-0.335-0.891-0.415-1.775-0.24-2.649c0.148-0.73,0.514-1.422,1.097-2.077c0.216-0.24,0.428-0.438,0.641-0.599
	c0.212-0.158,0.544-0.36,0.997-0.597c0.229-0.12,0.374-0.212,0.425-0.274c0.055-0.058,0.075-0.137,0.059-0.229
	c-0.021-0.096-0.107-0.223-0.265-0.38l0.165-0.185l2.217,1.699l-0.165,0.186c-0.671-0.292-1.254-0.418-1.758-0.384
	c-0.723,0.048-1.357,0.377-1.901,0.987c-0.74,0.829-0.973,1.754-0.703,2.775c0.233,0.857,0.733,1.631,1.501,2.316
	c0.624,0.555,1.298,0.942,2.032,1.158c0.73,0.219,1.388,0.24,1.977,0.062c0.589-0.179,1.069-0.477,1.436-0.888
	c0.216-0.243,0.397-0.503,0.539-0.781c0.14-0.281,0.247-0.576,0.314-0.891l-1.86-1.662c-0.332-0.298-0.576-0.47-0.723-0.514
	c-0.15-0.041-0.298-0.035-0.445,0.024c-0.15,0.058-0.343,0.219-0.583,0.486l-0.185-0.168l2.286-2.556l0.185,0.168l-0.113,0.123
	c-0.23,0.261-0.306,0.514-0.219,0.765C59.126,30.287,59.335,30.533,59.695,30.855"/>
<path fill="#21B28A" d="M55.669,40.442l-0.158,0.178l-9.148-0.384l4.043,3.608c0.397,0.357,0.685,0.535,0.863,0.535
	c0.244-0.006,0.483-0.137,0.713-0.397l0.212-0.236l0.185,0.165l-2.077,2.327l-0.185-0.168l0.206-0.229
	c0.258-0.288,0.354-0.562,0.295-0.83c-0.037-0.161-0.24-0.404-0.6-0.73l-4.574-4.083c-0.391-0.007-0.668,0.006-0.826,0.041
	c-0.161,0.038-0.356,0.12-0.586,0.257c-0.113,0.069-0.253,0.199-0.425,0.387l-0.185-0.165l1.59-1.778l8.491,0.35l-3.766-3.365
	c-0.4-0.356-0.688-0.531-0.87-0.528c-0.24,0.003-0.48,0.134-0.713,0.397l-0.208,0.229l-0.186-0.165l2.077-2.327l0.185,0.168
	l-0.212,0.237c-0.25,0.281-0.347,0.555-0.288,0.822c0.038,0.165,0.24,0.407,0.604,0.73L55.669,40.442z"/>
<path fill="#21B28A" d="M53.791,66.058v0.336l-0.816,0.668l-1.051,1.052c-1.1,2.539-1.724,5.218-1.244,7.757
	c0.86,3.016-1.056,5.65-2.491,8.521l-1.1,1.244l-0.335,0.145l-1.82,0.191l-0.715-0.191l-0.942-0.658l-0.638-0.442l-1.439-0.144
	l-2.295-2.06l-0.288-0.144l-0.719-0.48l2.155-2.198l0.287-0.625l-0.287-3.926v-0.668l1.007-1.104l1.724-0.956l0.86-0.144
	l0.384-0.479l1.052-0.144l0.384-0.332l0.715-0.145l1.056-0.959l0.384-0.144l3.779-2.68l0.719-0.624l0.956-0.668H53.791z
	 M49.389,71.752v-0.476l-0.624-0.624h-0.24L46.61,73l-0.813,1.436l-0.144,0.956l-1.627,2.204l-0.527,0.763l-0.576,0.672L42.59,80.13
	l-1.58,1.723v0.96l0.476,0.432l1.104,0.523h0.908l1.1-1.291l0.144-0.479l-0.144-0.765l0.144-0.815l0.432-0.955l1.339-2.012
	l0.959-1.723L49.389,71.752z"/>
<polygon fill="#21B28A" points="51.779,93.009 51.348,93.486 44.122,93.438 44.313,92.674 44.458,92.242 44.026,90.039 
	42.206,86.928 41.247,85.731 41.011,85.588 41.871,85.444 43.019,85.492 43.114,85.78 44.886,88.459 45.317,89.083 47.473,90.039 
	47.901,90.183 51.063,92.865 51.492,93.009 "/>
<polygon fill="#21B28A" points="51.111,84.392 51.255,84.868 51.111,85.349 50.248,86.451 49.244,86.593 48.956,86.784 
	47.809,87.839 46.945,88.65 45.078,87.407 45.222,87.071 46.657,86.928 48.813,85.827 49.528,85.204 50.392,84.728 50.824,84.248 
	"/>
<path fill="#21B28A" d="M50.385,124.056v0.583h-5.931v-0.583h0.37c0.335,0,0.606-0.116,0.805-0.346
	c0.141-0.154,0.253-0.415,0.339-0.788c0.062-0.265,0.092-0.953,0.092-2.073v-16.352l-2.737,12.74l-0.617-0.134l3.08-14.538h4.598
	v0.583h-0.371c-0.335,0-0.606,0.116-0.805,0.349c-0.141,0.154-0.254,0.415-0.336,0.781c-0.065,0.268-0.096,0.96-0.096,2.077v14.493
	c0,1.141,0.031,1.854,0.096,2.138c0.059,0.285,0.185,0.534,0.377,0.748c0.192,0.216,0.446,0.321,0.764,0.321H50.385z"/>
<path fill="#21B28A" d="M49.902,46.688l-2.519,2.82l-0.188-0.168l0.209-0.233c0.242-0.274,0.342-0.542,0.294-0.806
	c-0.03-0.167-0.243-0.428-0.633-0.777l-4.249-3.793c-0.329-0.295-0.565-0.47-0.709-0.521c-0.11-0.038-0.237-0.034-0.387,0.018
	c-0.203,0.072-0.374,0.188-0.515,0.342l-0.208,0.236l-0.186-0.167l2.519-2.82l0.185,0.164l-0.212,0.24
	c-0.24,0.268-0.336,0.535-0.288,0.795c0.031,0.175,0.243,0.436,0.634,0.785l4.245,3.79c0.329,0.298,0.569,0.469,0.709,0.521
	c0.109,0.042,0.24,0.034,0.391-0.017c0.202-0.069,0.37-0.182,0.511-0.339l0.209-0.236L49.902,46.688z"/>
<path fill="#21B28A" d="M40.723,46.01l3.539,7.27l-0.182,0.203l-7.826-2.597c-0.404-0.134-0.662-0.206-0.774-0.213
	c-0.171-0.006-0.339,0.021-0.5,0.089c-0.161,0.069-0.339,0.195-0.535,0.38l-0.184-0.168l2.401-2.689l0.186,0.165
	c-0.24,0.329-0.363,0.572-0.37,0.73c-0.007,0.157,0.048,0.288,0.164,0.39c0.161,0.144,0.479,0.295,0.953,0.453l5.338,1.771
	l-2.409-4.952c-0.24-0.486-0.432-0.795-0.58-0.924c-0.092-0.083-0.222-0.117-0.394-0.1c-0.168,0.017-0.37,0.12-0.603,0.312
	c-0.017,0.014-0.048,0.038-0.088,0.069l-0.185-0.165l1.799-2.015l0.185,0.165c-0.165,0.271-0.251,0.514-0.251,0.726
	C40.411,45.222,40.517,45.588,40.723,46.01"/>
<path fill="#21B28A" d="M43.324,117.237l-1.594,7.401h-0.202l-4.417-19.994v15.54c0,1.092,0.014,1.764,0.042,2.018
	c0.075,0.544,0.229,0.99,0.472,1.336c0.24,0.346,0.621,0.518,1.138,0.518v0.583h-3.899v-0.583h0.12
	c0.253,0.011,0.49-0.069,0.709-0.236c0.219-0.172,0.384-0.397,0.497-0.682c0.113-0.285,0.202-0.686,0.264-1.2
	c0.01-0.12,0.017-0.679,0.017-1.671v-13.911c0-1.142-0.031-1.851-0.093-2.135c-0.062-0.285-0.191-0.531-0.38-0.748
	c-0.192-0.216-0.449-0.324-0.771-0.324h-0.363v-0.583h4.65l3.193,14.538L43.324,117.237z"/>
<polygon fill="#21B28A" points="43.019,90.663 43.163,90.95 42.446,95.401 42.159,95.688 41.871,96.024 41.151,96.646 
	39.431,96.646 39,96.98 35.553,96.646 34.117,96.98 33.733,97.269 31.961,96.98 31.102,97.125 31.102,94.301 31.673,94.301 
	31.673,96.217 33.109,94.444 35.408,92.865 35.984,92.721 37.563,91.43 38.424,90.663 38.855,90.47 39.476,89.563 40.771,89.895 
	41.199,89.754 41.343,89.419 40.771,88.65 40.339,87.551 40.781,87.071 41.871,88.078 42.686,89.706 42.398,91.618 "/>
<polygon fill="#21B28A" points="40.781,87.071 40.339,87.551 39.715,87.167 38.904,86.88 38.759,88.795 38.568,88.459 
	35.265,90.183 34.261,90.998 32.821,92.05 31.673,94.301 31.102,94.301 31.102,88.459 32.821,84.68 33.014,84.2 34.117,83.097 
	35.169,82.765 37.132,82.957 39.144,84.344 39.859,85.923 40.579,85.636 40.003,86.355 "/>
<path fill="#21B28A" d="M40.555,57.153l-2.518,2.819l-0.189-0.165l0.213-0.233c0.243-0.274,0.339-0.541,0.294-0.805
	c-0.034-0.171-0.247-0.432-0.637-0.781l-4.245-3.79c-0.332-0.295-0.568-0.469-0.713-0.521c-0.11-0.041-0.236-0.034-0.383,0.014
	c-0.206,0.076-0.377,0.188-0.518,0.346l-0.209,0.233l-0.185-0.164l2.519-2.823l0.185,0.168l-0.209,0.236
	c-0.24,0.271-0.335,0.535-0.291,0.798c0.031,0.172,0.243,0.432,0.634,0.782l4.245,3.793c0.333,0.294,0.569,0.469,0.713,0.521
	c0.106,0.041,0.236,0.034,0.387-0.017c0.202-0.073,0.37-0.185,0.511-0.339l0.212-0.236L40.555,57.153z"/>
<polygon fill="#21B28A" points="36.46,72.424 37.132,73.955 36.796,76.827 36.22,77.643 35.553,78.262 34.449,78.311 33.062,77.738 
	32.537,77.162 31.102,76.395 30.334,76.11 28.659,75.007 28.563,75.391 27.559,74.818 27.367,74.671 27.031,74.723 26.695,74.867 
	27.079,75.966 27.319,76.063 28.083,76.063 28.898,76.395 30.574,77.882 32.489,78.502 33.157,78.838 33.781,79.029 34.069,78.981 
	34.261,78.838 34.593,79.078 34.497,79.51 34.356,81.041 34.309,82.428 33.87,82.717 33.35,83.053 30.286,82.908 29.042,82.188 
	28.803,81.997 28.371,81.138 20.617,72.855 20.185,72.184 24.256,72.232 28.131,71.324 29.138,70.892 31.386,71.036 32.918,70.029 
	33.798,70.111 33.925,70.125 "/>
<path fill="#21B28A" d="M35.844,58.848l1.278,2.146l-4.537,5.084l-0.188-0.165l0.223-0.25c0.246-0.277,0.336-0.555,0.264-0.833
	c-0.041-0.161-0.247-0.403-0.617-0.737l-4.245-3.793c-0.408-0.363-0.706-0.544-0.887-0.544c-0.254,0-0.494,0.124-0.713,0.374
	l-0.223,0.247l-0.185-0.167l2.642-2.96l0.188,0.167c-0.312,0.343-0.497,0.61-0.551,0.809c-0.055,0.199-0.055,0.371,0,0.514
	c0.058,0.141,0.277,0.384,0.665,0.729l4.132,3.69c0.268,0.24,0.476,0.377,0.62,0.415c0.103,0.024,0.209,0.007,0.312-0.044
	c0.103-0.051,0.346-0.288,0.723-0.712l0.429-0.479c0.449-0.501,0.726-0.888,0.835-1.158c0.106-0.267,0.141-0.573,0.103-0.909
	c-0.038-0.335-0.185-0.767-0.442-1.298L35.844,58.848z"/>
<path fill="#21B28A" d="M33.929,102.565v5.955H33.63c-0.178-1.378-0.377-2.367-0.596-2.971s-0.518-1.082-0.898-1.442
	c-0.216-0.195-0.585-0.295-1.12-0.295h-0.833v17.036c0,1.141,0.03,1.854,0.096,2.138c0.062,0.285,0.188,0.534,0.373,0.748
	c0.186,0.216,0.439,0.321,0.761,0.321h0.373v0.583h-5.931v-0.583h0.377c0.329,0,0.593-0.116,0.795-0.346
	c0.144-0.154,0.257-0.415,0.342-0.788c0.062-0.265,0.093-0.953,0.093-2.073v-17.036h-0.836c-0.771,0-1.333,0.319-1.683,0.945
	c-0.49,0.881-0.802,2.135-0.932,3.763h-0.298v-5.955H33.929z"/>
<path fill="#21B28A" d="M30.382,86.307v0.333l-1.004,0.479l-0.288,0.145l-0.576,0.814l-0.144,0.285l0.144,0.336l-0.432,0.145
	l0.048,0.479l-0.335,1.58l-1.388,2.012h-1.436l-3.875-2.204l-0.144-0.287l-2.107-1.724l-0.864-1.771l-0.572-0.765l-1.435-5.074
	l0.144-0.287l4.69-0.336l6.222,0.767l0.336,0.909l2.151,1.819l0.768,2.011L30.382,86.307z M27.271,87.646v-0.431l-0.144-0.288
	l-7.23-3.875l-1.387,0.236v0.719l0.288,0.336l0.86,1.005l5.506,2.729l1.148,0.285L27.271,87.646z"/>
<polygon fill="#21B28A" points="30.238,87.551 30.238,94.157 26.407,94.157 26.407,93.486 28.323,91.046 29.09,88.363 "/>
<polygon fill="#21B28A" points="26.407,93.486 26.407,94.157 17.602,94.157 20.425,91.046 24.54,93.486 "/>
<path fill="#21B28A" d="M24.074,116.85l-0.428,7.789H13.579v-0.583h0.38c0.329,0,0.596-0.116,0.798-0.346
	c0.144-0.154,0.257-0.415,0.336-0.788c0.062-0.265,0.093-0.953,0.093-2.073v-14.493c0-1.142-0.031-1.851-0.093-2.139
	c-0.062-0.284-0.185-0.534-0.374-0.747c-0.188-0.216-0.442-0.321-0.761-0.321h-0.38v-0.583h6.041v0.583h-0.49
	c-0.329,0-0.593,0.116-0.792,0.346c-0.144,0.154-0.257,0.418-0.339,0.788c-0.062,0.264-0.092,0.956-0.092,2.073v14.044
	c0,1.128,0.031,1.844,0.1,2.152c0.065,0.308,0.198,0.541,0.39,0.692c0.141,0.096,0.477,0.144,1.007,0.144h0.942
	c0.6,0,1.1-0.206,1.498-0.62c0.401-0.411,0.747-1.066,1.039-1.961c0.291-0.894,0.568-2.213,0.829-3.957H24.074z"/>
<path fill="#21B28A" d="M13.069,124.056v0.583H7.58v-0.583h0.226c0.442,0,0.75-0.12,0.929-0.359
	c0.123-0.176,0.185-0.429,0.185-0.757c0-0.196-0.017-0.398-0.051-0.607c-0.01-0.1-0.096-0.511-0.25-1.233l-0.617-2.748H4.02
	l-0.497,2.148c-0.158,0.724-0.233,1.315-0.233,1.788c0,0.621,0.127,1.08,0.384,1.374c0.15,0.176,0.521,0.309,1.113,0.395v0.583
	H1.015v-0.583c0.404-0.12,0.74-0.448,1.004-0.99c0.261-0.541,0.586-1.654,0.97-3.348l4.06-17.61h0.158l4.098,18.101
	c0.39,1.723,0.709,2.81,0.963,3.258C12.456,123.806,12.723,124.001,13.069,124.056 M7.73,117.142l-1.692-7.549l-1.74,7.549H7.73z"/>
</svg>
